<?xml version="1.0" standalone="no"?>
<!DOCTYPE svg PUBLIC "-//W3C//DTD SVG 1.1//EN" "http://www.w3.org/Graphics/SVG/1.1/DTD/svg11.dtd" >
<svg xmlns="http://www.w3.org/2000/svg">
<metadata>Generated by IcoMoon</metadata>
<defs>
<font id="icomoon" horiz-adv-x="1024">
<font-face units-per-em="1024" ascent="960" descent="-64" />
<missing-glyph horiz-adv-x="1024" />
<glyph unicode="&#x20;" horiz-adv-x="512" d="" />
<glyph unicode="&#xe900;" glyph-name="activity" d="M385.6-19.2c11.2 0 30.4 3.2 33.6 20.8l128 699.2 116.8-688c3.2-14.4 14.4-25.6 30.4-27.2s28.8 6.4 35.2 20.8l105.6 267.2h156.8c19.2 0 33.6 14.4 33.6 33.6s-14.4 33.6-33.6 33.6h-182.4c-11.2-1.6-22.4-9.6-27.2-20.8l-70.4-177.6-132.8 758.4c-3.2 16-16 27.2-33.6 27.2s-30.4-11.2-33.6-27.2l-131.2-724.8-73.6 355.2c-3.2 12.8-14.4 24-27.2 25.6-14.4 1.6-27.2-3.2-35.2-16l-115.2-200h-96c-19.2 0-33.6-14.4-33.6-33.6s14.4-33.6 33.6-33.6h115.2c11.2 0 22.4 8 28.8 17.6l84.8 145.6 89.6-436.8c3.2-16 19.2-19.2 33.6-19.2v0z" />
<glyph unicode="&#xe901;" glyph-name="add-appt" d="M988.8 760h-147.2v147.2c0 19.2-16 35.2-35.2 35.2s-35.2-16-35.2-35.2v-147.2h-147.2c-19.2 0-35.2-16-35.2-35.2 0-9.6 3.2-19.2 11.2-25.6 6.4-6.4 16-11.2 25.6-11.2h147.2v-147.2c0-9.6 3.2-19.2 11.2-25.6 6.4-6.4 16-11.2 25.6-11.2 19.2 0 35.2 16 35.2 35.2v148.8h147.2c19.2 0 35.2 16 35.2 35.2-3.2 20.8-19.2 36.8-38.4 36.8zM555.2 579.2h-59.2v48c0 17.6-14.4 32-32 32s-32-14.4-32-32v-48h-201.6v48c0 17.6-14.4 32-32 32s-32-14.4-32-32v-48h-59.2c-59.2 0-107.2-48-107.2-107.2v-409.6c0-59.2 48-107.2 107.2-107.2h448c59.2 0 107.2 48 107.2 107.2v409.6c0 59.2-48 107.2-107.2 107.2zM609.6 60.8c0-30.4-24-54.4-54.4-54.4h-448c-30.4 0-54.4 24-54.4 54.4v281.6h555.2v-281.6zM609.6 406.4h-555.2v65.6c0 30.4 24 54.4 54.4 54.4h59.2v-32c0-17.6 14.4-32 32-32s32 14.4 32 32v32h203.2v-32c0-17.6 14.4-32 32-32s32 14.4 32 32v32h59.2c30.4 0 54.4-24 54.4-54.4v-65.6z" />
<glyph unicode="&#xe902;" glyph-name="add-contact" d="M584 265.6l-8 4.8 6.4 8c40 46.4 64 105.6 64 166.4 0 72-32 140.8-86.4 188.8-46.4 40-104 62.4-163.2 62.4-9.6 0-20.8 0-30.4-1.6-76.8-9.6-144-54.4-184-123.2-40-67.2-48-148.8-19.2-219.2 9.6-25.6 25.6-49.6 43.2-72l6.4-8-9.6-4.8c-9.6-4.8-25.6-16-48-35.2l-3.2-3.2c-81.6-62.4-136-153.6-152-251.2-1.6-11.2 1.6-20.8 8-28.8 8-8 17.6-12.8 28.8-12.8h715.2c11.2 0 20.8 4.8 27.2 12.8s9.6 19.2 8 28.8c-19.2 121.6-94.4 228.8-203.2 288zM81.6 9.6l3.2 11.2c33.6 97.6 112 174.4 209.6 206.4 14.4 4.8 24 16 25.6 30.4s-4.8 28.8-17.6 35.2c-54.4 32-86.4 89.6-86.4 153.6 0 97.6 80 179.2 179.2 179.2 97.6 0 177.6-80 177.6-179.2 0-62.4-32-120-86.4-153.6-12.8-8-19.2-20.8-17.6-35.2s11.2-25.6 25.6-30.4c96-30.4 176-110.4 209.6-206.4l3.2-11.2h-625.6zM988.8 779.2h-147.2v147.2c0 19.2-16 35.2-36.8 35.2-19.2 0-35.2-16-35.2-35.2v-147.2h-147.2c-19.2 0-36.8-16-36.8-35.2 0-9.6 3.2-19.2 11.2-25.6 6.4-6.4 16-11.2 25.6-11.2h147.2v-147.2c0-9.6 3.2-19.2 11.2-25.6 6.4-6.4 16-11.2 25.6-11.2 19.2 0 36.8 16 36.8 35.2v147.2h147.2c19.2 0 35.2 16 35.2 35.2s-17.6 38.4-36.8 38.4z" />
<glyph unicode="&#xe903;" glyph-name="add-drip" d="M988.8 761.6h-153.6v155.2c0 19.2-16 35.2-35.2 35.2s-35.2-16-35.2-35.2v-153.6h-153.6c-19.2 0-35.2-16-35.2-35.2 0-9.6 3.2-17.6 9.6-25.6 6.4-6.4 16-9.6 25.6-9.6h153.6v-153.6c0-9.6 3.2-17.6 9.6-25.6 6.4-6.4 16-9.6 25.6-9.6 19.2 0 35.2 16 35.2 35.2v153.6h153.6c19.2 0 35.2 16 35.2 35.2 0 17.6-16 33.6-35.2 33.6zM411.2 774.4v0c-17.6 32-51.2 51.2-88 51.2s-68.8-19.2-88-51.2l-129.6-225.6c-65.6-115.2-140.8-244.8-86.4-390.4 48-128 171.2-212.8 305.6-212.8 118.4 0 230.4 67.2 286.4 171.2 67.2 123.2 30.4 235.2-3.2 310.4-14.4 30.4-110.4 200-196.8 347.2zM545.6 150.4c-43.2-80-131.2-131.2-222.4-131.2-104 0-200 67.2-236.8 164.8-41.6 112 20.8 222.4 83.2 326.4l131.2 227.2c4.8 8 12.8 12.8 24 12.8 9.6 0 19.2-4.8 24-12.8 80-139.2 179.2-313.6 192-342.4 43.2-97.6 44.8-172.8 4.8-244.8z" />
<glyph unicode="&#xe904;" glyph-name="add-reminder" d="M990.4 763.2h-150.4v150.4c0 19.2-16 33.6-33.6 33.6-19.2 0-33.6-16-33.6-33.6v-150.4h-150.4c-19.2 0-33.6-16-33.6-33.6 0-9.6 3.2-17.6 9.6-24s14.4-9.6 24-9.6h150.4v-150.4c0-9.6 3.2-17.6 9.6-24s14.4-9.6 24-9.6c19.2 0 33.6 16 33.6 33.6v150.4h150.4c19.2 0 33.6 16 33.6 33.6 0 19.2-16 33.6-33.6 33.6zM648 100.8v0c-72 32-75.2 177.6-75.2 179.2v99.2c0 92.8-54.4 177.6-137.6 217.6l-4.8 3.2v4.8c-6.4 49.6-48 86.4-97.6 86.4s-91.2-36.8-97.6-86.4v-4.8l-4.8-3.2c-83.2-40-137.6-124.8-137.6-217.6v-99.2c0-41.6-14.4-152-75.2-179.2-12.8-4.8-19.2-19.2-16-32s14.4-22.4 28.8-22.4h187.2l1.6-6.4c6.4-17.6 16-35.2 28.8-49.6 22.4-24 52.8-36.8 84.8-36.8s62.4 12.8 84.8 36.8c12.8 14.4 24 30.4 28.8 49.6l1.6 6.4h187.2c12.8 0 25.6 9.6 28.8 22.4s-4.8 25.6-16 32zM144 224c3.2 25.6 4.8 46.4 4.8 54.4v99.2c0 100.8 81.6 182.4 182.4 182.4s182.4-81.6 182.4-182.4v-100.8c0-6.4 0-27.2 4.8-54.4l1.6-11.2h-377.6l1.6 12.8zM104 102.4l8 16c4.8 9.6 9.6 19.2 14.4 30.4l1.6 6.4h408l3.2-6.4c4.8-11.2 9.6-22.4 14.4-30.4l8-14.4h-457.6z" />
<glyph unicode="&#xe905;" glyph-name="arrow-down" d="M876.8 664c-14.4 14.4-38.4 12.8-52.8-1.6l-320-339.2-299.2 337.6c-12.8 16-36.8 16-52.8 3.2v0c-8-6.4-12.8-17.6-12.8-27.2s3.2-17.6 9.6-24l324.8-368c6.4-8 17.6-12.8 27.2-12.8v0c9.6 0 19.2 4.8 27.2 11.2l347.2 368c6.4 6.4 9.6 16 9.6 27.2 3.2 9.6-1.6 19.2-8 25.6z" />
<glyph unicode="&#xe906;" glyph-name="arrow-left" d="M724.8 89.6c14.4 14.4 12.8 38.4-1.6 52.8l-339.2 320 337.6 299.2c16 12.8 16 36.8 3.2 52.8v0c-6.4 8-17.6 12.8-27.2 12.8s-17.6-3.2-24-9.6l-368-324.8c-8-6.4-12.8-17.6-12.8-27.2v0c0-9.6 4.8-19.2 11.2-27.2l368-347.2c6.4-6.4 16-9.6 27.2-9.6 9.6-1.6 19.2 1.6 25.6 8z" />
<glyph unicode="&#xe907;" glyph-name="arrow-right" d="M304 814.4c-14.4-14.4-12.8-38.4 1.6-52.8l339.2-320-339.2-297.6c-16-12.8-16-36.8-3.2-52.8v0c6.4-8 17.6-12.8 27.2-12.8s17.6 3.2 24 9.6l368 324.8c8 6.4 12.8 17.6 12.8 27.2v0c0 9.6-4.8 19.2-11.2 27.2l-368 348.8c-6.4 6.4-16 9.6-27.2 9.6-9.6 0-17.6-4.8-24-11.2z" />
<glyph unicode="&#xe908;" glyph-name="arrow-up" d="M152 241.6c14.4-14.4 38.4-12.8 52.8 1.6l320 339.2 299.2-337.6c12.8-16 36.8-16 52.8-3.2v0c8 6.4 12.8 17.6 12.8 27.2s-3.2 17.6-9.6 24l-324.8 368c-6.4 8-17.6 12.8-27.2 12.8v0c-9.6 0-19.2-4.8-27.2-11.2l-347.2-368c-6.4-6.4-9.6-16-9.6-27.2-3.2-9.6 1.6-19.2 8-25.6z" />
<glyph unicode="&#xe909;" glyph-name="attach" d="M742.4 960c-57.6 0-112-22.4-153.6-64l-427.2-427.2c-139.2-139.2-150.4-328-28.8-449.6 59.2-59.2 136-88 217.6-83.2s164.8 44.8 232 112l385.6 384c6.4 6.4 11.2 16 11.2 25.6s-3.2 19.2-11.2 25.6c-14.4 14.4-36.8 14.4-51.2 0l-384-384c-94.4-94.4-238.4-139.2-348.8-28.8-51.2 51.2-72 115.2-60.8 184 9.6 57.6 41.6 115.2 89.6 163.2l342.4 342.4c1.6 1.6 3.2 3.2 4.8 6.4l3.2 3.2 78.4 76.8c56 56 148.8 56 204.8 0s56-148.8 0-206.4l-342.4-342.4c-12.8-12.8-28.8-19.2-46.4-19.2-16 0-32 6.4-44.8 19.2s-19.2 28.8-19.2 44.8c0 17.6 6.4 35.2 19.2 46.4l84.8 84.8c3.2 3.2 6.4 6.4 9.6 9.6l4.8 3.2 57.6 57.6c6.4 6.4 11.2 16 11.2 25.6s-3.2 19.2-11.2 25.6c-12.8 12.8-38.4 12.8-51.2 0l-60.8-60.8c-4.8-3.2-8-6.4-11.2-9.6l-84.8-84.8c-25.6-25.6-40-59.2-40-96s14.4-72 40-97.6c25.6-25.6 60.8-40 96-40 36.8 0 70.4 14.4 97.6 40l342.4 342.4c41.6 41.6 64 96 64 153.6s-22.4 113.6-64 153.6c-41.6 41.6-96 64-155.2 64z" />
<glyph unicode="&#xe90a;" glyph-name="calendar" d="M844.8 843.2h-97.6v80c0 20.8-16 36.8-36.8 36.8s-38.4-16-38.4-36.8v-80h-320v80c1.6 20.8-16 36.8-36.8 36.8s-36.8-16-36.8-36.8v-80h-17.6c0 0 0 0 0 0h-78.4c-83.2 0-150.4-67.2-150.4-150.4v-608c0-83.2 67.2-150.4 150.4-150.4h664c83.2 0 148.8 67.2 148.8 150.4v608c-1.6 83.2-68.8 150.4-150.4 150.4zM934.4 494.4v-408c0-49.6-40-89.6-89.6-89.6h-664c-49.6 0-89.6 40-89.6 89.6v425.6h843.2v-17.6zM934.4 640v-54.4h-843.2v107.2c0 49.6 40 89.6 89.6 89.6h97.6v-19.2c0 0 0 0 0 0v-40c0-20.8 16-36.8 36.8-36.8s36.8 16 36.8 36.8v40c0 0 0 0 0 0v19.2h321.6v-59.2c0-20.8 17.6-36.8 36.8-36.8 20.8 0 36.8 16 36.8 36.8v40c0 0 0 0 0 0v17.6h97.6c49.6 0 89.6-40 89.6-89.6v-51.2z" />
<glyph unicode="&#xe90b;" glyph-name="chat" d="M472-51.2c4.8-1.6 48-24 102.4 17.6l40 30.4h278.4c72 0 131.2 59.2 131.2 131.2v238.4c0 72-59.2 131.2-131.2 131.2h-56v283.2c0 97.6-80 176-176 176h-484.8c-97.6 0-176-80-176-176v-336c0-97.6 80-176 176-176h262.4v-252.8c0-27.2 12.8-51.2 33.6-67.2zM792 182.4c27.2 19.2 44.8 51.2 44.8 84.8v168h56c38.4 0 68.8-30.4 68.8-68.8v-238.4c0-38.4-30.4-68.8-68.8-68.8h-288c-6.4 0-12.8-1.6-19.2-6.4l-51.2-36.8c-4.8-1.6-8-1.6-11.2-1.6-6.4 0-11.2 1.6-12.8 4.8-9.6 6.4-9.6 20.8-9.6 22.4v227.2h97.6l84.8-73.6c12.8-9.6 54.4-40 108.8-12.8zM176 331.2c-62.4 0-113.6 51.2-113.6 115.2v336c0 62.4 51.2 113.6 113.6 113.6h483.2c62.4 0 115.2-51.2 115.2-113.6v-513.6c0-11.2-4.8-27.2-19.2-30.4-3.2 0-4.8-1.6-8-1.6-4.8 0-11.2 1.6-16 4.8-16 8-30.4 22.4-44.8 35.2-4.8 4.8-11.2 9.6-16 14.4l-40 35.2c-6.4 4.8-12.8 8-20.8 8h-433.6z" />
<glyph unicode="&#xe90c;" glyph-name="check" d="M963.2 803.2l-635.2-635.2-267.2 267.2c-12.8 12.8-36.8 12.8-49.6 0-14.4-14.4-14.4-36.8 0-49.6l292.8-292.8c12.8-12.8 36.8-12.8 49.6 0l660.8 660.8c6.4 6.4 9.6 16 9.6 25.6s-3.2 17.6-9.6 25.6c-14.4 12.8-36.8 12.8-51.2-1.6z" />
<glyph unicode="&#xe90d;" glyph-name="close" d="M33.6-64c4.8 0 14.4 1.6 24 9.6l454.4 454.4 454.4-454.4c8-8 19.2-9.6 24-9.6s14.4 1.6 24 9.6c12.8 12.8 12.8 33.6 0 48l-456 454.4 456 454.4c12.8 12.8 12.8 33.6 0 48-12.8 12.8-33.6 12.8-48 0l-454.4-454.4-454.4 454.4c-12.8 12.8-33.6 12.8-48 0-12.8-12.8-12.8-33.6 0-48l454.4-454.4-454.4-454.4c-6.4-6.4-9.6-16-9.6-24s3.2-17.6 9.6-24c8-8 19.2-9.6 24-9.6z" />
<glyph unicode="&#xe90e;" glyph-name="closed" d="M512 248c32 0 59.2 27.2 59.2 59.2s-27.2 59.2-59.2 59.2c-32 0-59.2-27.2-59.2-59.2s27.2-59.2 59.2-59.2zM724.8 504v68.8c0 116.8-96 212.8-212.8 212.8s-212.8-96-212.8-212.8c0-19.2 14.4-33.6 33.6-33.6s33.6 14.4 33.6 33.6c0 80 65.6 145.6 145.6 145.6s145.6-65.6 145.6-145.6v-68.8h-352c-27.2 0-51.2-22.4-51.2-51.2v-224c0-65.6 54.4-120 120-120h273.6c65.6 0 120 54.4 120 120v224c1.6 27.2-19.2 49.6-43.2 51.2zM700.8 230.4c0-28.8-24-52.8-52.8-52.8h-272c-28.8 0-52.8 24-52.8 52.8v208h379.2v-208zM512 960c-281.6 0-512-230.4-512-512s230.4-512 512-512 512 230.4 512 512c0 281.6-230.4 512-512 512zM512 4.8c-244.8 0-443.2 198.4-443.2 443.2s198.4 443.2 443.2 443.2 443.2-198.4 443.2-443.2c0-244.8-198.4-443.2-443.2-443.2z" />
<glyph unicode="&#xe90f;" glyph-name="communication" d="M968 856h-912c-32 0-56-25.6-56-56v-704c0-30.4 24-56 56-56h913.6c30.4 0 56 24 56 56v704c-1.6 30.4-25.6 56-57.6 56zM65.6 550.4c0 6.4 4.8 12.8 11.2 16s14.4 1.6 19.2-3.2l158.4-134.4c4.8-3.2 6.4-9.6 6.4-16 0-4.8-3.2-11.2-9.6-14.4l-158.4-91.2c-3.2-1.6-6.4-1.6-9.6-1.6s-6.4 1.6-9.6 3.2c-4.8 3.2-9.6 9.6-9.6 16v225.6zM958.4 124.8c0-9.6-8-17.6-17.6-17.6h-856c-9.6 0-17.6 8-17.6 17.6v92.8c0 6.4 3.2 12.8 9.6 16l230.4 134.4c6.4 3.2 14.4 3.2 20.8-1.6l32-27.2c30.4-25.6 86.4-52.8 145.6-52.8 48 0 91.2 17.6 129.6 52.8l33.6 27.2c6.4 4.8 12.8 4.8 19.2 1.6l259.2-150.4c4.8-3.2 9.6-9.6 9.6-16v-76.8zM958.4 307.2c0-6.4-3.2-12.8-9.6-16-3.2-1.6-6.4-1.6-9.6-1.6s-6.4 1.6-9.6 1.6l-182.4 105.6c-4.8 3.2-8 8-9.6 14.4 0 6.4 1.6 11.2 6.4 16l180.8 144c4.8 4.8 12.8 4.8 19.2 1.6s9.6-9.6 9.6-16v-249.6zM958.4 684.8c0-4.8-3.2-11.2-6.4-14.4l-360-281.6c-25.6-24-56-35.2-88-35.2-51.2 0-92.8 30.4-100.8 36.8l-331.2 280c-3.2 3.2-6.4 8-6.4 14.4v86.4c0 9.6 8 17.6 17.6 17.6h856c9.6 0 17.6-8 17.6-17.6v-86.4z" />
<glyph unicode="&#xe910;" glyph-name="drip" d="M604.8 905.6c-20.8 33.6-56 54.4-96 54.4s-75.2-20.8-94.4-54.4l-155.2-267.2c-76.8-134.4-164.8-286.4-102.4-454.4 54.4-147.2 196.8-246.4 353.6-246.4 136 0 265.6 76.8 331.2 196.8 76.8 140.8 35.2 272-3.2 358.4-25.6 52.8-225.6 398.4-233.6 412.8zM779.2 166.4c-52.8-97.6-160-161.6-270.4-161.6-128 0-243.2 81.6-289.6 201.6-51.2 137.6 24 268.8 97.6 395.2l155.2 268.8c8 12.8 20.8 20.8 35.2 20.8s28.8-8 35.2-20.8c97.6-164.8 216-369.6 232-406.4 51.2-116.8 54.4-208 4.8-297.6z" />
<glyph unicode="&#xe911;" glyph-name="drop-down" d="M788.8 675.2c-9.6 16-25.6 25.6-43.2 25.6h-467.2c-17.6 0-33.6-9.6-43.2-25.6s-9.6-33.6 0-49.6l233.6-404.8c9.6-16 25.6-25.6 43.2-25.6s33.6 9.6 43.2 25.6l233.6 404.8c8 16 8 33.6 0 49.6z" />
<glyph unicode="&#xe912;" glyph-name="drop-up" d="M235.2 220.8c9.6-16 25.6-25.6 43.2-25.6h467.2c17.6 0 33.6 9.6 43.2 25.6s9.6 33.6 0 49.6l-233.6 404.8c-9.6 16-25.6 25.6-43.2 25.6s-33.6-9.6-43.2-25.6l-233.6-404.8c-9.6-16-9.6-33.6 0-49.6z" />
<glyph unicode="&#xe913;" glyph-name="favorite" d="M934.4 804.8c-59.2 59.2-136 92.8-219.2 92.8-68.8 0-137.6-24-190.4-67.2l-12.8-11.2-12.8 11.2c-54.4 43.2-121.6 67.2-190.4 67.2-83.2 0-160-32-217.6-92.8-120-121.6-120-321.6 0-443.2l308.8-315.2c30.4-30.4 68.8-46.4 112-46.4 41.6 0 81.6 16 112 46.4 0 0 307.2 313.6 310.4 316.8 120 121.6 120 320 0 441.6zM577.6 91.2c-16-17.6-40-27.2-65.6-27.2s-49.6 9.6-65.6 27.2c0 0-307.2 313.6-310.4 316.8-96 97.6-96 256 0 353.6 46.4 46.4 107.2 73.6 172.8 73.6s126.4-25.6 176-76.8l4.8-4.8c12.8-12.8 32-12.8 48 0 1.6 1.6 3.2 3.2 6.4 6.4 46.4 48 108.8 73.6 172.8 73.6s126.4-25.6 172.8-73.6c96-97.6 96-256 0-353.6l-312-315.2z" />
<glyph unicode="&#xe914;" glyph-name="filter" d="M164.8-59.2c19.2 0 33.6 16 33.6 33.6v544h78.4c16 0 28.8 12.8 28.8 28.8v227.2c0 16-12.8 28.8-28.8 28.8h-78.4v120c0 19.2-16 33.6-33.6 33.6-19.2 0-33.6-16-33.6-33.6v-120h-80c-16 0-28.8-12.8-28.8-28.8v-225.6c0-16 12.8-28.8 28.8-28.8h78.4v-544c1.6-19.2 16-35.2 35.2-35.2zM80 577.6v168h168v-168h-168zM859.2-59.2c19.2 0 33.6 16 33.6 33.6v544h78.4c16 0 28.8 12.8 28.8 28.8v227.2c0 16-12.8 28.8-28.8 28.8h-78.4v120c0 19.2-16 33.6-33.6 33.6s-33.6-16-33.6-33.6v-120h-78.4c-16 0-28.8-12.8-28.8-28.8v-225.6c0-16 12.8-28.8 28.8-28.8h78.4v-544c0-19.2 14.4-35.2 33.6-35.2zM774.4 577.6v168h169.6v-168h-169.6zM512-59.2c19.2 0 33.6 16 33.6 33.6v121.6h78.4c16 0 28.8 12.8 28.8 28.8v225.6c0 16-12.8 28.8-28.8 28.8h-78.4v544c0 19.2-16 33.6-33.6 33.6-19.2 0-33.6-16-33.6-33.6v-544h-78.4c-16 0-28.8-12.8-28.8-28.8v-225.6c0-16 12.8-28.8 28.8-28.8h78.4v-120c0-19.2 14.4-35.2 33.6-35.2zM427.2 153.6v168h168v-168h-168z" />
<glyph unicode="&#xe915;" glyph-name="for-sale" d="M902.4 465.6l-371.2 280c-4.8 4.8-12.8 6.4-19.2 6.4s-14.4-1.6-19.2-6.4l-371.2-280c-8-6.4-12.8-16-12.8-25.6v-472c0-17.6 14.4-32 32-32h742.4c17.6 0 32 14.4 32 32v472c0 9.6-4.8 19.2-12.8 25.6zM851.2 0h-678.4v424l339.2 256 339.2-256v-424zM942.4 632c-1.6 9.6-6.4 17.6-12.8 22.4l-396.8 299.2c-6.4 4.8-12.8 6.4-20.8 6.4s-14.4-1.6-20.8-6.4l-396.8-299.2c-8-4.8-11.2-12.8-12.8-22.4s1.6-17.6 6.4-25.6c11.2-14.4 33.6-17.6 48-6.4l376 283.2 377.6-284.8c14.4-11.2 36.8-8 48 6.4 4.8 8 6.4 17.6 4.8 27.2z" />
<glyph unicode="&#xe916;" glyph-name="html" d="M88 451.2l177.6 156.8c14.4 12.8 16 35.2 3.2 49.6-6.4 6.4-14.4 11.2-24 11.2h-1.6c-9.6 0-16-3.2-22.4-8l-208-184c-6.4-6.4-8-14.4-8-24s4.8-17.6 11.2-24l206.4-195.2c6.4-6.4 14.4-9.6 24-9.6s19.2 4.8 25.6 11.2c6.4 6.4 9.6 16 9.6 25.6s-4.8 17.6-11.2 24l-182.4 166.4zM1011.2 464v0l-206.4 195.2c-6.4 6.4-14.4 9.6-24 9.6-6.4 0-17.6-3.2-25.6-11.2-6.4-6.4-9.6-16-9.6-25.6s4.8-17.6 11.2-24l179.2-168-177.6-156.8c-6.4-6.4-11.2-14.4-11.2-24s1.6-17.6 8-25.6c6.4-6.4 14.4-11.2 24-11.2s17.6 1.6 25.6 8l208 184c11.2 16 11.2 36.8-1.6 49.6zM617.6 785.6c-8 1.6-17.6 0-25.6-4.8s-12.8-12.8-14.4-19.2v-3.2l-196.8-604.8c-4.8-16 3.2-35.2 19.2-41.6l14.4-1.6c12.8 0 25.6 9.6 30.4 24l196.8 601.6c1.6 3.2 1.6 6.4 3.2 8 3.2 19.2-8 36.8-27.2 41.6z" />
<glyph unicode="&#xe917;" glyph-name="inbox" d="M1020.8 465.6c0 1.6 0 1.6 0 0-1.6 3.2-3.2 4.8-3.2 6.4l-1.6 1.6-305.6 326.4c-6.4 6.4-16 11.2-25.6 11.2h-380.8c-11.2 0-20.8-4.8-27.2-12.8-92.8-113.6-211.2-254.4-275.2-328v0c-1.6-1.6-1.6-1.6-1.6-3.2-1.6-3.2-1.6-6.4-1.6-9.6v-340.8c0-17.6 14.4-32 32-32h958.4c17.6 0 32 14.4 32 32v342.4c0 1.6 0 3.2 0 4.8 0 0 0 1.6 0 1.6zM89.6 470.4l4.8 6.4c54.4 62.4 126.4 148.8 220.8 264l4.8 6.4h350.4l259.2-276.8c0 0 0 0 0 0h-259.2c-17.6 0-32-14.4-32-32v-96h-256v96c0 17.6-14.4 32-32 32h-260.8zM956.8 148.8h-892.8v256h254.4v-96c0-17.6 14.4-32 32-32h320c17.6 0 32 14.4 32 32v96h254.4v-256z" />
<glyph unicode="&#xe918;" glyph-name="inquiry" d="M515.2 960c-281.6 0-512-230.4-512-512s230.4-512 512-512 512 230.4 512 512c0 281.6-230.4 512-512 512zM515.2 4.8c-244.8 0-443.2 198.4-443.2 443.2s198.4 443.2 443.2 443.2 443.2-198.4 443.2-443.2c0-244.8-200-443.2-443.2-443.2zM504 182.4c-22.4 0-40-17.6-40-40s17.6-40 40-40 40 17.6 40 40-17.6 40-40 40zM654.4 747.2c-62.4 51.2-147.2 60.8-225.6 25.6-75.2-33.6-126.4-104-129.6-176 0-11.2 3.2-20.8 9.6-28.8s17.6-12.8 27.2-12.8c9.6 0 20.8 3.2 27.2 9.6 8 6.4 12.8 17.6 12.8 27.2 1.6 43.2 35.2 86.4 83.2 108.8 20.8 9.6 41.6 14.4 62.4 14.4 30.4 0 57.6-9.6 81.6-28.8 32-25.6 48-65.6 43.2-105.6-8-60.8-57.6-124.8-137.6-124.8-20.8 0-38.4-16-40-38.4l-3.2-104c0-11.2 3.2-20.8 11.2-28.8 6.4-8 17.6-12.8 27.2-12.8 22.4 0 40 16 41.6 38.4l3.2 68.8 14.4 3.2c86.4 22.4 152 97.6 163.2 187.2 9.6 67.2-19.2 134.4-72 177.6z" />
<glyph unicode="&#xe919;" glyph-name="chat-text" d="M259.2 129.6c-12.8 0-19.2-4.8-22.4-9.6s-6.4-11.2-9.6-17.6c-4.8-11.2-9.6-20.8-17.6-25.6-8-6.4-17.6-8-30.4-8-11.2 0-20.8 3.2-28.8 8-6.4 3.2-12.8 11.2-17.6 22.4s-6.4 25.6-6.4 43.2c0 25.6 4.8 44.8 16 59.2 9.6 12.8 22.4 19.2 40 19.2 11.2 0 19.2-1.6 25.6-6.4 8-4.8 14.4-12.8 19.2-22.4 4.8-8 8-14.4 12.8-17.6 4.8-4.8 11.2-6.4 20.8-6.4 8 0 16 3.2 20.8 9.6s8 12.8 8 20.8c0 11.2-4.8 24-14.4 36.8s-22.4 22.4-38.4 32c-16 8-35.2 12.8-56 12.8-17.6 0-33.6-3.2-48-9.6s-28.8-14.4-40-27.2c-11.2-11.2-20.8-25.6-25.6-41.6-6.4-16-9.6-35.2-9.6-54.4 0-12.8 1.6-24 3.2-35.2s6.4-22.4 11.2-32 11.2-19.2 17.6-27.2c8-9.6 16-16 25.6-22.4 9.6-4.8 19.2-9.6 30.4-12.8s22.4-3.2 36.8-3.2c17.6 0 33.6 3.2 48 8 12.8 6.4 25.6 12.8 33.6 22.4s16 19.2 19.2 28.8c4.8 9.6 6.4 19.2 6.4 28.8 0 8-3.2 16-9.6 22.4-4.8 1.6-12.8 4.8-20.8 4.8zM472 265.6c-6.4-6.4-9.6-16-9.6-28.8v-59.2h-86.4v59.2c0 12.8-3.2 22.4-9.6 28.8s-14.4 9.6-24 9.6-19.2-3.2-24-11.2c-6.4-6.4-8-16-8-28.8v-187.2c0-12.8 3.2-20.8 9.6-28.8 11.2-14.4 36.8-14.4 48 0 6.4 6.4 9.6 16 9.6 28.8v70.4h86.4v-70.4c0-12.8 3.2-20.8 9.6-28.8 6.4-6.4 14.4-11.2 24-11.2s17.6 3.2 24 9.6c6.4 6.4 9.6 16 9.6 28.8v190.4c0 12.8-3.2 22.4-9.6 28.8-12.8 12.8-36.8 12.8-49.6 0zM956.8 264c-6.4 4.8-14.4 8-25.6 8h-153.6c-9.6 0-17.6-3.2-24-8s-9.6-12.8-9.6-22.4c0-8 3.2-16 9.6-20.8s14.4-8 24-8h43.2v-163.2c0-12.8 3.2-22.4 9.6-28.8s14.4-9.6 24-9.6 17.6 3.2 24 9.6c6.4 6.4 9.6 16 9.6 28.8v163.2h43.2c11.2 0 19.2 3.2 24 8 6.4 4.8 9.6 12.8 9.6 20.8 0 9.6-3.2 16-8 22.4zM713.6 224c-3.2 8-4.8 14.4-8 19.2-1.6 4.8-4.8 9.6-8 14.4s-8 9.6-14.4 12.8c-11.2 6.4-30.4 6.4-43.2 0-6.4-3.2-11.2-8-14.4-12.8s-6.4-11.2-8-17.6l-67.2-171.2c-3.2-6.4-4.8-11.2-6.4-16 0-3.2 0-6.4 0-11.2 0-8 3.2-16 9.6-22.4s14.4-9.6 22.4-9.6c12.8 0 19.2 4.8 22.4 9.6s8 12.8 12.8 27.2l9.6 24h83.2l9.6-24c1.6-3.2 3.2-8 4.8-12.8 3.2-4.8 4.8-9.6 6.4-12.8 3.2-3.2 6.4-6.4 9.6-8s8-3.2 14.4-3.2c9.6 0 17.6 3.2 24 9.6s9.6 14.4 9.6 22.4c0 6.4-3.2 16-8 28.8l-60.8 153.6zM640 126.4l22.4 62.4 22.4-62.4h-44.8zM320 539.2h139.2v-132.8c0-19.2 9.6-36.8 25.6-48 1.6-1.6 12.8-6.4 27.2-6.4 12.8 0 28.8 3.2 44.8 16l19.2 14.4h155.2c48 0 88 40 88 88v137.6c0 48-40 88-88 88h-20.8v150.4c0 62.4-51.2 113.6-113.6 113.6h-276.8c-62.4 0-113.6-51.2-113.6-113.6v-193.6c0-62.4 49.6-113.6 113.6-113.6zM678.4 492.8c19.2 12.8 32 35.2 32 59.2v84.8h20.8c16 0 27.2-12.8 27.2-27.2v-137.6c0-16-12.8-27.2-27.2-27.2h-166.4c-6.4 0-12.8-1.6-17.6-6.4l-25.6-19.2c-1.6 0-1.6 0-1.6 0s0 1.6 0 3.2v120h40l43.2-38.4 1.6-1.6c16-16 43.2-25.6 73.6-9.6zM265.6 846.4c0 30.4 24 54.4 54.4 54.4h276.8c30.4 0 54.4-24 54.4-54.4v-294.4c0-3.2-1.6-6.4-1.6-6.4-1.6 0-3.2 0-4.8 1.6-8 3.2-16 11.2-22.4 17.6-3.2 3.2-6.4 6.4-9.6 8l-24 19.2c-4.8 4.8-12.8 8-19.2 8h-249.6c-30.4 0-54.4 24-54.4 54.4v192z" />
<glyph unicode="&#xe91a;" glyph-name="email-text" d="M758.4 268.8c-6.4-6.4-9.6-16-9.6-28.8v-187.2c0-12.8 3.2-20.8 9.6-28.8 6.4-6.4 14.4-9.6 24-9.6s17.6 3.2 24 9.6c6.4 6.4 9.6 16 9.6 28.8v187.2c0 12.8-3.2 22.4-9.6 28.8-12.8 12.8-36.8 12.8-48 0zM659.2 228.8c-3.2 8-4.8 14.4-8 19.2-1.6 4.8-4.8 9.6-8 14.4s-8 9.6-14.4 12.8c-11.2 6.4-30.4 6.4-43.2 0-6.4-3.2-9.6-8-14.4-12.8-3.2-4.8-6.4-11.2-8-17.6l-67.2-169.6c-3.2-6.4-4.8-11.2-6.4-14.4-1.6-4.8-1.6-8-1.6-12.8 0-8 3.2-16 9.6-22.4s14.4-9.6 22.4-9.6c12.8 0 19.2 4.8 22.4 9.6s8 12.8 12.8 25.6l9.6 24h83.2l9.6-24c0 0 0 0 0 0 1.6-3.2 3.2-8 4.8-12.8 3.2-4.8 4.8-9.6 6.4-12.8 3.2-3.2 6.4-6.4 9.6-8s8-3.2 14.4-3.2c9.6 0 17.6 3.2 22.4 9.6 6.4 6.4 9.6 14.4 9.6 22.4 0 6.4-3.2 16-8 28.8l-57.6 153.6zM585.6 129.6l22.4 62.4 22.4-62.4h-44.8zM1014.4 68.8c-6.4 4.8-14.4 8-24 8h-88v163.2c0 12.8-3.2 22.4-9.6 28.8s-14.4 9.6-24 9.6c-9.6 0-17.6-3.2-24-9.6s-9.6-16-9.6-28.8v-182.4c0-12.8 3.2-22.4 9.6-28.8s16-9.6 28.8-9.6h116.8c9.6 0 17.6 3.2 24 8s9.6 12.8 9.6 20.8c0 8-3.2 16-9.6 20.8zM457.6 267.2c-6.4 4.8-16 6.4-27.2 6.4h-14.4c-9.6 0-17.6-1.6-22.4-3.2-6.4-3.2-11.2-6.4-14.4-12.8-1.6-4.8-4.8-12.8-6.4-22.4l-25.6-96-25.6 96c-3.2 9.6-4.8 17.6-6.4 22.4-3.2 6.4-8 11.2-14.4 12.8-4.8 1.6-12.8 3.2-22.4 3.2h-14.4c-11.2 0-20.8-1.6-27.2-6.4-8-4.8-12.8-14.4-12.8-28.8v-187.2c0-11.2 3.2-20.8 8-27.2 11.2-12.8 33.6-12.8 46.4 0 4.8 6.4 8 14.4 8 27.2v89.6l19.2-80c0 0 0 0 0 0l3.2-14.4c1.6-4.8 3.2-9.6 6.4-14.4s6.4-9.6 12.8-12.8c4.8-3.2 11.2-4.8 19.2-4.8 9.6 0 17.6 3.2 24 8 4.8 4.8 9.6 9.6 11.2 16 1.6 4.8 3.2 12.8 6.4 22.4l19.2 80v-89.6c0-11.2 3.2-20.8 8-27.2 6.4-6.4 14.4-9.6 22.4-9.6 9.6 0 17.6 3.2 22.4 9.6s8 14.4 8 27.2v188.8c0 12.8-3.2 22.4-11.2 27.2zM169.6 75.2h-102.4v49.6h91.2c9.6 0 17.6 3.2 22.4 8s8 11.2 8 19.2c0 8-3.2 14.4-8 19.2s-12.8 8-22.4 8h-91.2v40h99.2c9.6 0 17.6 3.2 24 8s8 12.8 8 20.8c0 8-3.2 14.4-8 20.8-4.8 4.8-12.8 8-24 8h-128c-8 0-14.4-1.6-20.8-3.2-6.4-3.2-11.2-8-14.4-14.4-1.6-8-3.2-14.4-3.2-22.4v-179.2c0-12.8 3.2-22.4 9.6-28.8s16-9.6 28.8-9.6h131.2c9.6 0 17.6 3.2 24 8s8 12.8 8 20.8c0 8-3.2 16-8 20.8-6.4 4.8-14.4 6.4-24 6.4zM297.6 467.2h430.4c20.8 0 38.4 17.6 38.4 38.4v331.2c0 20.8-17.6 38.4-38.4 38.4h-430.4c-20.8 0-38.4-17.6-38.4-38.4v-331.2c0-22.4 16-38.4 38.4-38.4zM710.4 611.2l-75.2 43.2 75.2 59.2v-102.4zM313.6 819.2h395.2v-35.2l-168-132.8c-9.6-9.6-20.8-14.4-33.6-14.4-20.8 0-36.8 12.8-40 14.4l-153.6 132.8v35.2zM313.6 710.4l64-54.4-64-36.8v91.2zM313.6 560l105.6 60.8 12.8-11.2c16-12.8 44.8-28.8 76.8-28.8 25.6 0 49.6 9.6 68.8 27.2l14.4 11.2 118.4-68.8v-30.4h-396.8v40z" />
<glyph unicode="&#xe91b;" glyph-name="launchpad" d="M480 435.2c3.2-8 9.6-14.4 17.6-19.2 16-8 36.8 0 44.8 16l216 480c3.2 8 4.8 17.6 1.6 25.6s-9.6 14.4-17.6 19.2c-9.6 3.2-19.2 3.2-27.2 0s-14.4-9.6-19.2-17.6l-216-478.4c-3.2-8-3.2-17.6 0-25.6zM320 292.8h380.8c19.2 0 33.6 14.4 33.6 33.6s-14.4 33.6-33.6 33.6h-380.8c-19.2 0-33.6-14.4-33.6-33.6 0-17.6 16-33.6 33.6-33.6zM715.2 681.6v0c-6.4-6.4-11.2-14.4-11.2-22.4 0-9.6 1.6-17.6 8-24 11.2-12.8 33.6-14.4 48-3.2 14.4 12.8 16 33.6 3.2 48-12.8 12.8-33.6 14.4-48 1.6zM523.2 723.2v0c8 0 17.6 3.2 24 8 6.4 6.4 11.2 14.4 11.2 24s-3.2 17.6-8 24c-6.4 6.4-14.4 11.2-24 11.2-4.8 0-11.2 0-16 0-89.6 0-172.8-33.6-236.8-94.4-68.8-65.6-105.6-153.6-105.6-248 0-19.2 14.4-33.6 33.6-33.6s33.6 14.4 33.6 33.6c0 76.8 30.4 147.2 84.8 200 54.4 51.2 126.4 78.4 203.2 75.2zM968 619.2v0c-32 76.8-81.6 144-145.6 196.8-14.4 11.2-35.2 9.6-48-4.8-6.4-6.4-8-16-8-24 1.6-9.6 4.8-17.6 12.8-22.4 56-44.8 99.2-104 126.4-169.6 43.2-105.6 43.2-222.4-1.6-326.4-43.2-107.2-126.4-188.8-232-232s-222.4-43.2-326.4 1.6c-105.6 43.2-187.2 126.4-230.4 232s-43.2 222.4 1.6 326.4c44.8 105.6 126.4 187.2 232 230.4 68.8 28.8 144 38.4 217.6 28.8 17.6-1.6 35.2 11.2 38.4 28.8 1.6 17.6-11.2 35.2-28.8 38.4-20.8 3.2-43.2 4.8-64 4.8-64 0-128-12.8-187.2-36.8-121.6-49.6-217.6-144-268.8-267.2-51.2-121.6-51.2-256-1.6-379.2 49.6-121.6 144-217.6 267.2-268.8 121.6-51.2 256-51.2 379.2-1.6 121.6 49.6 217.6 144 268.8 267.2 48 121.6 49.6 256-1.6 377.6zM819.2 480c-19.2 0-33.6-14.4-33.6-33.6s14.4-33.6 33.6-33.6c19.2 0 33.6 14.4 33.6 33.6s-14.4 33.6-33.6 33.6v0zM800 590.4v0c-19.2 0-33.6-14.4-33.6-33.6s14.4-33.6 33.6-33.6c19.2 0 33.6 14.4 33.6 33.6 0 17.6-16 33.6-33.6 33.6z" />
<glyph unicode="&#xe91c;" glyph-name="leads" d="M268.8 67.2h720c9.6 0 20.8 4.8 27.2 12.8s9.6 17.6 8 28.8c-19.2 124.8-99.2 233.6-212.8 292.8l-1.6 1.6 1.6 1.6c44.8 44.8 68.8 107.2 68.8 172.8 0 139.2-112 251.2-251.2 251.2-57.6 0-112-19.2-156.8-57.6l-1.6-1.6-1.6 1.6c-40 36.8-89.6 57.6-142.4 57.6-116.8 0-211.2-94.4-211.2-211.2 0-51.2 19.2-99.2 52.8-139.2l1.6-1.6-1.6-1.6c-89.6-48-152-136-168-235.2-1.6-9.6 1.6-20.8 8-28.8s16-12.8 27.2-12.8h225.6l-1.6-3.2c-11.2-28.8-20.8-59.2-25.6-88-1.6-9.6 1.6-20.8 8-28.8 6.4-6.4 17.6-11.2 27.2-11.2zM628.8 758.4c99.2 0 180.8-81.6 180.8-180.8 0-64-33.6-121.6-88-155.2-11.2-6.4-19.2-20.8-17.6-33.6 1.6-14.4 11.2-25.6 24-28.8 104-35.2 184-116.8 216-220.8l1.6-3.2h-632v3.2c32 104 112 185.6 214.4 219.2 12.8 4.8 22.4 16 24 28.8 1.6 14.4-4.8 27.2-17.6 33.6-54.4 35.2-86.4 92.8-86.4 156.8 0 99.2 81.6 180.8 180.8 180.8zM80 268.8l1.6 3.2c27.2 76.8 89.6 137.6 166.4 163.2 12.8 4.8 22.4 16 24 28.8 1.6 14.4-4.8 27.2-17.6 33.6-43.2 25.6-68.8 70.4-68.8 120 0 76.8 62.4 139.2 139.2 139.2 35.2 0 67.2-12.8 94.4-36.8l1.6-1.6-1.6-1.6c-28.8-41.6-43.2-91.2-43.2-140.8 0-65.6 25.6-128 70.4-174.4l1.6-1.6h-1.6c-57.6-30.4-108.8-75.2-147.2-129.6v-1.6h-219.2z" />
<glyph unicode="&#xe91d;" glyph-name="location" d="M521.6 689.6c-75.2 0-136-60.8-136-136s60.8-136 136-136 136 60.8 136 136-60.8 136-136 136zM521.6 488c-36.8 0-65.6 28.8-65.6 65.6s28.8 65.6 65.6 65.6c36.8 0 65.6-28.8 65.6-65.6s-28.8-65.6-65.6-65.6zM929.6 550.4c0 108.8-41.6 211.2-118.4 289.6-78.4 76.8-180.8 120-289.6 120s-211.2-43.2-288-120c-76.8-76.8-120-180.8-118.4-289.6 0-30.4 3.2-59.2 9.6-86.4l1.6-4.8c40-176 292.8-435.2 369.6-510.4l3.2-3.2c8-6.4 16-9.6 25.6-9.6 8 0 17.6 3.2 25.6 9.6l3.2 3.2c76.8 75.2 329.6 334.4 369.6 510.4v0 0l1.6 4.8c1.6 27.2 4.8 56 4.8 86.4zM851.2 476.8v0c-35.2-148.8-256-380.8-323.2-449.6l-6.4-6.4-6.4 6.4c-65.6 68.8-288 300.8-321.6 448v3.2c-4.8 24-8 48-8 73.6 0 185.6 150.4 336 336 337.6 185.6 0 336-152 336-337.6 0-25.6-3.2-49.6-8-73.6l1.6-1.6z" />
<glyph unicode="&#xe91e;" glyph-name="more" d="M35.2 705.6h953.6c19.2 0 35.2 16 35.2 35.2s-16 35.2-35.2 35.2h-953.6c-19.2 0-35.2-16-35.2-35.2s16-35.2 35.2-35.2zM988.8 486.4h-953.6c-19.2 0-35.2-16-35.2-35.2s16-35.2 35.2-35.2h953.6c19.2 0 35.2 16 35.2 35.2s-16 35.2-35.2 35.2zM988.8 196.8h-953.6c-19.2 0-35.2-16-35.2-35.2s16-35.2 35.2-35.2h953.6c19.2 0 35.2 16 35.2 35.2s-16 35.2-35.2 35.2z" />
<glyph unicode="&#xe91f;" glyph-name="more-2" d="M1000 512c-16 16-36.8 25.6-60.8 25.6h-3.2c-46.4 0-84.8-38.4-84.8-84.8 0-48 38.4-86.4 86.4-86.4s86.4 38.4 86.4 86.4c0 22.4-8 43.2-24 59.2zM512 536c-46.4 0-84.8-38.4-84.8-84.8s38.4-84.8 84.8-84.8 84.8 38.4 84.8 84.8c0 46.4-38.4 84.8-84.8 84.8zM88 536h-1.6c-46.4 0-84.8-38.4-84.8-84.8 0-48 38.4-86.4 86.4-86.4s86.4 38.4 86.4 86.4c-1.6 46.4-40 84.8-86.4 84.8z" />
<glyph unicode="&#xe920;" glyph-name="note" d="M1001.6 726.4c16 14.4 24 33.6 25.6 54.4 0 20.8-8 41.6-24 56l-102.4 100.8c-16 14.4-36.8 22.4-57.6 22.4-22.4 0-43.2-8-56-22.4l-344-339.2h-270.4c-96 1.6-172.8-76.8-172.8-171.2v-318.4c0-96 76.8-172.8 172.8-172.8h457.6c96 0 172.8 76.8 172.8 172.8v318.4c0 30.4-8 59.2-22.4 84.8l17.6 16 203.2 198.4zM689.6 516.8v0l-193.6-187.2-33.6 32 356.8 345.6 33.6-32-163.2-158.4zM835.2 889.6c3.2 3.2 11.2 3.2 14.4 0l102.4-99.2c4.8-4.8 4.8-11.2 0-16l-54.4-54.4-118.4 115.2 56 54.4zM732.8 784l33.6-32-352-342.4-33.6 32 352 342.4zM432 297.6l-105.6-33.6-12.8 12.8 35.2 102.4 83.2-81.6zM732.8 427.2v-318.4c0-41.6-27.2-81.6-65.6-96-11.2-4.8-24-6.4-36.8-6.4h-456c-56 0-102.4 46.4-102.4 102.4v318.4c0 41.6 27.2 81.6 65.6 96 11.2 4.8 24 6.4 36.8 6.4h198.4l-65.6-64c-1.6-1.6-4.8-3.2-4.8-8l-1.6-1.6c-1.6-4.8-3.2-11.2-6.4-16-4.8-12.8-9.6-27.2-12.8-40-4.8-16-11.2-33.6-16-49.6-4.8-14.4-9.6-30.4-14.4-44.8-6.4-19.2-12.8-38.4-19.2-57.6-3.2-9.6-6.4-17.6-4.8-28.8 1.6-19.2 16-35.2 33.6-40 9.6-3.2 20.8-3.2 30.4 0 22.4 8 44.8 14.4 65.6 20.8 14.4 4.8 28.8 9.6 44.8 14.4 14.4 4.8 28.8 9.6 43.2 14.4 12.8 3.2 24 8 36.8 11.2 8 1.6 14.4 4.8 22.4 6.4 1.6 0 1.6 0 3.2 1.6 3.2 1.6 8 3.2 12.8 8l150.4 147.2 57.6 56c1.6-9.6 4.8-20.8 4.8-32z" />
<glyph unicode="&#xe921;" glyph-name="open" d="M488-54.4c6.4-6.4 14.4-9.6 24-9.6 17.6 0 33.6 14.4 33.6 33.6v444.8h444.8c17.6 0 33.6 14.4 33.6 33.6 0 17.6-14.4 33.6-33.6 33.6h-444.8v444.8c0 19.2-16 33.6-33.6 33.6s-33.6-14.4-33.6-33.6v-444.8h-444.8c-17.6 0-33.6-14.4-33.6-33.6 0-9.6 3.2-17.6 9.6-24s14.4-9.6 24-9.6h444.8v-444.8c0-8 3.2-17.6 9.6-24z" />
<glyph unicode="&#xe922;" glyph-name="pencil" d="M996.8 788.8l-134.4 129.6c-17.6 17.6-41.6 27.2-67.2 27.2-27.2 0-51.2-9.6-67.2-27.2-3.2-1.6-609.6-596.8-616-603.2-8-8-12.8-16-17.6-27.2-3.2-9.6-84.8-251.2-88-259.2-3.2-11.2-8-22.4-6.4-33.6 1.6-12.8 8-25.6 19.2-33.6 9.6-6.4 20.8-11.2 32-12.8 12.8-1.6 24 3.2 35.2 8 9.6 3.2 265.6 83.2 267.2 84.8 4.8 1.6 9.6 3.2 14.4 8l625.6 608c19.2 17.6 30.4 40 30.4 64 0 25.6-9.6 49.6-27.2 67.2zM651.2 736l54.4-52.8-467.2-454.4-54.4 54.4 467.2 452.8zM121.6 43.2l-24 24 51.2 150.4 128-124.8-155.2-49.6zM344 126.4l-54.4 52.8 473.6 460.8 54.4-52.8-473.6-460.8zM944 707.2v0l-78.4-76.8-164.8 161.6 78.4 76.8c8 8 24 8 30.4 0l132.8-129.6c9.6-8 9.6-22.4 1.6-32z" />
<glyph unicode="&#xe923;" glyph-name="phone" d="M953.6 889.6c-44.8 44.8-104 70.4-168 70.4s-123.2-24-168-70.4c-81.6-81.6-92.8-209.6-27.2-304l3.2-4.8-4.8-4.8c-24-27.2-70.4-76.8-97.6-105.6-28.8-27.2-73.6-68.8-107.2-99.2l-4.8-4.8-4.8 3.2c-40 27.2-86.4 43.2-136 43.2-64 0-123.2-24-168-70.4-44.8-44.8-70.4-104-70.4-168s24-123.2 70.4-168c44.8-44.8 104-70.4 168-70.4 48 0 92.8 14.4 131.2 40l3.2 1.6c113.6 73.6 224 166.4 332.8 276.8 112 108.8 204.8 220.8 278.4 332.8 0 0 0 1.6 1.6 1.6 60.8 96 48 220.8-32 300.8zM924.8 627.2c-3.2-4.8-163.2-219.2-270.4-323.2-104-107.2-320-267.2-321.6-268.8-27.2-19.2-60.8-28.8-94.4-28.8-44.8 0-86.4 17.6-118.4 49.6-65.6 65.6-65.6 172.8 0 236.8 32 32 73.6 49.6 118.4 49.6s86.4-17.6 116.8-48c12.8-12.8 33.6-12.8 46.4-1.6 6.4 4.8 96 86.4 139.2 128 41.6 43.2 121.6 131.2 126.4 137.6 11.2 14.4 11.2 33.6-1.6 46.4-64 65.6-64 171.2 1.6 235.2 32 32 73.6 49.6 118.4 49.6s86.4-17.6 118.4-49.6c57.6-57.6 65.6-147.2 20.8-212.8zM40 563.2c19.2 0 35.2 16 35.2 35.2 0 155.2 126.4 283.2 283.2 283.2 19.2 0 35.2 16 35.2 35.2s-16 35.2-35.2 35.2c-195.2 0-353.6-158.4-353.6-353.6 0-19.2 16-35.2 35.2-35.2zM358.4 769.6c-94.4 0-171.2-76.8-171.2-171.2 0-19.2 16-35.2 35.2-35.2s35.2 16 35.2 35.2c0 56 44.8 100.8 100.8 100.8 19.2 0 35.2 16 35.2 35.2s-16 35.2-35.2 35.2z" />
<glyph unicode="&#xe924;" glyph-name="plan" d="M896 798.4c-14.4 14.4-32 22.4-52.8 22.4h-102.4l-1.6 4.8c-6.4 14.4-19.2 22.4-35.2 22.4h-62.4l-1.6 6.4c-6.4 57.6-65.6 102.4-132.8 102.4s-126.4-44.8-132.8-102.4v-6.4h-62.4c-16 0-28.8-9.6-35.2-24l-1.6-4.8h-102.4c-41.6 0-75.2-33.6-75.2-73.6v-734.4c0-41.6 33.6-73.6 75.2-73.6h670.4c41.6 0 75.2 33.6 75.2 73.6v734.4c0 20.8-8 38.4-22.4 52.8zM451.2 860.8c9.6 16 33.6 25.6 57.6 25.6v0c25.6 0 48-9.6 57.6-27.2l8-12.8h-131.2l8 14.4zM337.6 779.2h340.8l20.8-89.6h-382.4l20.8 89.6zM848 8h-678.4v742.4h91.2l-20.8-84.8c-3.2-11.2 0-22.4 8-32s17.6-14.4 28.8-14.4h462.4c11.2 0 22.4 4.8 28.8 14.4s9.6 20.8 8 32l-19.2 84.8h91.2v-742.4zM728 460.8h-438.4c-19.2 0-35.2-16-35.2-35.2s16-35.2 35.2-35.2h438.4c19.2 0 35.2 16 35.2 35.2 0 9.6-3.2 17.6-9.6 24-8 8-16 11.2-25.6 11.2zM728 233.6h-438.4c-19.2 0-35.2-16-35.2-35.2s16-35.2 35.2-35.2h438.4c19.2 0 35.2 16 35.2 35.2 0 9.6-3.2 17.6-9.6 24-8 8-16 11.2-25.6 11.2z" />
<glyph unicode="&#xe925;" glyph-name="progress" d="M512 960c-281.6 0-512-230.4-512-512s230.4-512 512-512 512 230.4 512 512c0 281.6-230.4 512-512 512zM512 4.8c-244.8 0-443.2 198.4-443.2 443.2s198.4 443.2 443.2 443.2 443.2-198.4 443.2-443.2c0-244.8-198.4-443.2-443.2-443.2zM512 601.6c-84.8 0-153.6-68.8-153.6-153.6s68.8-153.6 153.6-153.6 153.6 68.8 153.6 153.6-68.8 153.6-153.6 153.6zM512 360c-48 0-88 40-88 88s40 88 88 88c48 0 88-40 88-88s-40-88-88-88zM795.2 534.4h-9.6c-4.8 16-11.2 30.4-19.2 44.8l8 6.4c12.8 12.8 20.8 30.4 20.8 49.6s-8 36.8-20.8 49.6l-24 24c-12.8 12.8-30.4 19.2-49.6 19.2 0 0 0 0 0 0-19.2 0-36.8-6.4-49.6-19.2l-6.4-6.4c-14.4 8-30.4 14.4-44.8 19.2v9.6c0 38.4-32 70.4-70.4 70.4h-33.6c-38.4 0-70.4-32-70.4-70.4v-9.6c-16-4.8-30.4-11.2-44.8-19.2l-6.4 6.4c-12.8 12.8-30.4 19.2-49.6 19.2s-36.8-8-49.6-19.2l-24-24c-27.2-27.2-27.2-72 0-99.2l6.4-6.4c-8-14.4-14.4-30.4-19.2-44.8h-9.6c-38.4 0-70.4-32-70.4-70.4v-32c0-38.4 32-70.4 70.4-70.4h9.6c4.8-16 11.2-30.4 19.2-44.8l-8-6.4c-27.2-27.2-27.2-72 0-99.2l24-24c27.2-25.6 72-25.6 99.2 0l8 6.4c14.4-8 30.4-14.4 44.8-19.2v-9.6c0-38.4 32-70.4 70.4-70.4h32c38.4 0 70.4 32 70.4 70.4v9.6c16 4.8 30.4 11.2 44.8 19.2l6.4-6.4c12.8-12.8 30.4-20.8 49.6-20.8s36.8 8 49.6 20.8l24 24c27.2 27.2 27.2 72 0 99.2l-6.4 6.4c8 14.4 14.4 30.4 19.2 44.8h9.6c38.4 0 70.4 32 70.4 70.4v32c0 40-32 70.4-70.4 70.4zM800 432c0-3.2-1.6-4.8-4.8-4.8h-38.4c-14.4 0-25.6-9.6-28.8-22.4-4.8-27.2-16-54.4-32-76.8-8-11.2-6.4-27.2 3.2-36.8l27.2-27.2c1.6-1.6 1.6-4.8 0-6.4l-22.4-24c-1.6-1.6-4.8-1.6-6.4 0l-27.2 27.2c-9.6 9.6-25.6 11.2-36.8 3.2-24-16-49.6-27.2-76.8-32-12.8-3.2-22.4-14.4-22.4-28.8v-38.4c0-3.2-1.6-4.8-4.8-4.8h-33.6c-3.2 0-4.8 1.6-4.8 4.8v38.4c0 14.4-9.6 25.6-22.4 28.8-27.2 4.8-54.4 16-76.8 32-4.8 3.2-9.6 4.8-16 4.8-8 0-14.4-3.2-20.8-8l-27.2-27.2c-1.6-1.6-4.8-1.6-6.4 0l-24 22.4c-1.6 1.6-1.6 1.6-1.6 3.2s0 1.6 1.6 3.2l27.2 27.2c9.6 9.6 11.2 25.6 3.2 36.8-16 24-27.2 49.6-32 76.8-3.2 12.8-14.4 22.4-28.8 22.4h-38.4c-3.2 0-4.8 1.6-4.8 4.8v33.6c0 3.2 1.6 4.8 4.8 4.8h38.4c14.4 0 25.6 9.6 28.8 22.4 6.4 27.2 16 54.4 32 76.8 8 11.2 6.4 27.2-3.2 36.8l-27.2 27.2c-1.6 1.6-1.6 4.8 0 6.4l24 24c1.6 1.6 4.8 1.6 6.4 0l27.2-27.2c9.6-9.6 25.6-11.2 36.8-3.2 24 16 49.6 27.2 76.8 32 12.8 3.2 22.4 14.4 22.4 28.8v38.4c0 3.2 1.6 4.8 4.8 4.8h32c3.2 0 4.8-1.6 4.8-4.8v-38.4c0-14.4 9.6-25.6 22.4-28.8 27.2-4.8 54.4-16 76.8-32 11.2-8 27.2-6.4 36.8 3.2l27.2 27.2c0 0 1.6 1.6 3.2 1.6s1.6 0 3.2-1.6l24-24c1.6-1.6 1.6-4.8 0-6.4l-27.2-27.2c-9.6-9.6-11.2-25.6-3.2-36.8 16-24 27.2-49.6 32-76.8 3.2-12.8 14.4-22.4 28.8-22.4h38.4c3.2 0 4.8-1.6 4.8-4.8v-32z" />
<glyph unicode="&#xe926;" glyph-name="rate" d="M1022.4 569.6c-3.2 11.2-14.4 19.2-25.6 22.4l-315.2 44.8-142.4 284.8c-4.8 11.2-16 17.6-28.8 17.6s-24-6.4-28.8-17.6l-139.2-286.4-315.2-46.4c-12.8-1.6-22.4-9.6-25.6-22.4-3.2-11.2 0-24 8-33.6l228.8-220.8-52.8-313.6c-1.6-12.8 3.2-24 12.8-32 4.8-3.2 12.8-6.4 19.2-6.4 4.8 0 11.2 1.6 14.4 3.2l281.6 148.8 281.6-147.2c4.8-1.6 9.6-3.2 14.4-3.2 17.6 0 32 14.4 32 32 0 3.2 0 4.8-1.6 6.4l-54.4 312 227.2 222.4c9.6 11.2 12.8 24 9.6 35.2z" />
<glyph unicode="&#xe927;" glyph-name="reminder" d="M950.4 132.8v0c-102.4 46.4-108.8 248-108.8 256v139.2c0 128-75.2 246.4-193.6 299.2l-4.8 3.2v6.4c-4.8 67.2-62.4 121.6-131.2 121.6s-124.8-52.8-131.2-121.6v-6.4l-4.8-3.2c-118.4-52.8-193.6-169.6-193.6-299.2v-139.2c0-57.6-20.8-217.6-108.8-257.6-14.4-6.4-22.4-22.4-19.2-38.4s17.6-27.2 33.6-27.2h267.2l1.6-8c6.4-27.2 20.8-52.8 41.6-73.6 30.4-32 70.4-49.6 113.6-49.6s83.2 17.6 113.6 49.6c19.2 20.8 33.6 46.4 41.6 73.6l1.6 8h267.2c16 0 30.4 11.2 33.6 27.2 3.2 17.6-4.8 32-19.2 40zM510.4 891.2c24 0 46.4-16 54.4-36.8-17.6 3.2-35.2 4.8-52.8 4.8-19.2 0-38.4-1.6-57.6-4.8 9.6 20.8 30.4 36.8 56 36.8zM241.6 300.8c8 43.2 8 78.4 8 88v139.2c0 144 116.8 262.4 262.4 262.4 144 0 262.4-116.8 262.4-262.4v-140.8c0-6.4 1.6-41.6 8-88l1.6-11.2h-544l1.6 12.8zM590.4 52.8c-17.6-28.8-46.4-46.4-78.4-46.4s-62.4 17.6-78.4 46.4l-9.6 16h176l-9.6-16zM179.2 136l9.6 16c11.2 19.2 22.4 40 30.4 64l3.2 6.4h580.8l3.2-6.4c8-24 19.2-46.4 30.4-64l9.6-16h-667.2z" />
<glyph unicode="&#xe928;" glyph-name="reset" d="M984 484.8c-20.8 0-36.8-16-36.8-36.8 0-241.6-196.8-440-440-440-241.6 0-438.4 198.4-438.4 440s196.8 440 440 440c115.2 0 227.2-46.4 308.8-126.4l43.2-43.2h-169.6c-20.8 0-36.8-16-36.8-36.8s16-36.8 36.8-36.8h243.2c20.8 0 36.8 16 36.8 36.8v241.6c0 20.8-16 36.8-36.8 36.8s-36.8-16-36.8-36.8v-137.6l-41.6 38.4c-94.4 86.4-220.8 136-347.2 136-281.6 0-512-230.4-512-512s230.4-512 512-512c281.6 0 512 230.4 512 512 0 20.8-16 36.8-36.8 36.8z" />
<glyph unicode="&#xe929;" glyph-name="saved-filter" d="M974.4 680l-267.2 268.8c-6.4 6.4-16 9.6-25.6 9.6h-3.2c-1.6 0-3.2 0-3.2 1.6-1.6 0-3.2 0-3.2 0h-443.2c0 0-1.6 0-3.2 0s-3.2 0-3.2-1.6h-73.6c-59.2 0-108.8-48-108.8-108.8v-804.8c0-59.2 48-108.8 108.8-108.8h728c59.2 0 108.8 48 108.8 108.8v611.2c-1.6 9.6-4.8 17.6-11.2 24v0zM528 888h108.8v-201.6h-108.8v201.6zM264 888h193.6v-201.6h-193.6v201.6zM636.8 6.4h-372.8v352h372.8v-352zM913.6 44.8c0-20.8-17.6-38.4-38.4-38.4h-168v350.4c0 40-32 72-72 72h-368c-40 0-72-32-72-72v-350.4h-46.4c-20.8 0-38.4 17.6-38.4 38.4v804.8c0 20.8 17.6 38.4 38.4 38.4h44.8v-200c0-40 32-72 72-72h368c40 0 72 32 72 72v160l208-208v-595.2z" />
<glyph unicode="&#xe92a;" glyph-name="search" d="M1012.8-54.4c6.4 6.4 11.2 16 11.2 25.6s-3.2 19.2-11.2 25.6l-217.6 219.2 12.8 17.6c60.8 80 94.4 174.4 94.4 275.2 1.6 248-201.6 451.2-451.2 451.2s-452.8-203.2-452.8-452.8c0-249.6 203.2-452.8 452.8-452.8 99.2 0 195.2 32 275.2 94.4l17.6 14.4 216-217.6c14.4-12.8 38.4-12.8 52.8 0zM451.2 129.6c-208 0-377.6 169.6-377.6 377.6s169.6 377.6 377.6 377.6c208 0 377.6-169.6 377.6-377.6s-169.6-377.6-377.6-377.6z" />
<glyph unicode="&#xe92b;" glyph-name="send" d="M1024 428.8c0 11.2-4.8 22.4-16 27.2 0 0-956.8 390.4-956.8 390.4-4.8 1.6-8 1.6-12.8 1.6-14.4 0-28.8-8-33.6-22.4-3.2-8-3.2-16-1.6-22.4l115.2-372.8v-3.2l-116.8-369.6c-4.8-12.8 0-27.2 9.6-36.8 9.6-8 22.4-9.6 35.2-4.8 1.6 0 65.6 25.6 75.2 30.4 12.8 4.8 68.8 27.2 83.2 33.6 16 6.4 768 305.6 777.6 308.8 12.8 4.8 25.6 8 35.2 19.2 4.8 4.8 6.4 12.8 6.4 20.8zM94.4 752l715.2-284.8h-625.6l-89.6 284.8zM92.8 107.2l89.6 286.4 627.2 1.6-716.8-288z" />
<glyph unicode="&#xe92c;" glyph-name="sent" d="M1009.6 947.2c-8 8-19.2 12.8-30.4 8 0 0-952-400-952-400-3.2-1.6-8-4.8-11.2-8-9.6-9.6-14.4-25.6-8-40 3.2-6.4 8-12.8 16-17.6l344-180.8 1.6-1.6 179.2-344c6.4-12.8 19.2-19.2 33.6-19.2 11.2 1.6 22.4 9.6 27.2 20.8 0 1.6 27.2 64 32 75.2 4.8 12.8 28.8 68.8 35.2 83.2 6.4 16 328 758.4 331.2 768 4.8 12.8 12.8 24 9.6 38.4 0 6.4-3.2 12.8-8 17.6zM123.2 518.4l707.2 304-443.2-441.6-264 137.6zM577.6 62.4l-139.2 265.6 441.6 444.8-302.4-710.4z" />
<glyph unicode="&#xe92d;" glyph-name="sms" d="M809.6 88c116.8 0 212.8 94.4 212.8 212.8v416c-1.6 115.2-96 211.2-212.8 211.2h-596.8c-116.8 0-212.8-96-212.8-212.8v-635.2c0-40 19.2-76.8 52.8-100.8 62.4-30.4 112 4.8 124.8 16l107.2 91.2h524.8zM251.2 144c-11.2-9.6-20.8-17.6-32-27.2l-17.6-16c-6.4-4.8-12.8-11.2-19.2-17.6-17.6-16-35.2-33.6-56-43.2-8-3.2-14.4-6.4-22.4-6.4-4.8 0-8 0-11.2 1.6-20.8 8-28.8 28.8-28.8 44.8v635.2c0 81.6 67.2 148.8 148.8 148.8h596.8c81.6 0 147.2-65.6 147.2-147.2v-416c0-81.6-65.6-147.2-147.2-147.2h-537.6c-8-1.6-14.4-4.8-20.8-9.6z" />
<glyph unicode="&#xe92e;" glyph-name="star-filled" d="M617.6 585.6l-105.6 212.8-104-212.8c-6.4-14.4-20.8-24-35.2-25.6l-236.8-35.2 169.6-164.8c11.2-11.2 16-27.2 14.4-41.6l-40-235.2 209.6 110.4c8 3.2 14.4 4.8 22.4 4.8s16-1.6 22.4-4.8l209.6-110.4-41.6 233.6c-3.2 16 1.6 32 14.4 43.2l169.6 166.4-233.6 33.6c-14.4 1.6-28.8 11.2-35.2 25.6zM1022.4 569.6c-3.2 11.2-14.4 19.2-25.6 22.4l-315.2 44.8-142.4 284.8c-4.8 11.2-16 17.6-28.8 17.6s-24-6.4-28.8-17.6l-139.2-286.4-315.2-46.4c-12.8-1.6-22.4-9.6-25.6-22.4-3.2-11.2 0-24 8-33.6l228.8-220.8-52.8-313.6c-1.6-12.8 3.2-24 12.8-32 4.8-3.2 12.8-6.4 19.2-6.4 4.8 0 11.2 1.6 14.4 3.2l281.6 148.8 281.6-147.2c4.8-1.6 9.6-3.2 14.4-3.2 17.6 0 32 14.4 32 32 0 3.2 0 4.8-1.6 6.4l-54.4 312 227.2 222.4c9.6 11.2 12.8 24 9.6 35.2zM729.6 348.8c-8-8-11.2-17.6-9.6-28.8l48-265.6-240 124.8c-4.8 3.2-9.6 3.2-14.4 3.2s-9.6-1.6-16-3.2l-238.4-126.4 44.8 265.6c1.6 11.2-1.6 20.8-9.6 28.8l-193.6 187.2 267.2 40c11.2 1.6 19.2 8 24 17.6l120 243.2 120-241.6c4.8-9.6 14.4-16 24-17.6l267.2-38.4-193.6-188.8z" />
<glyph unicode="&#xe92f;" glyph-name="star-empty" d="M1022.4 569.6c-3.2 11.2-14.4 19.2-25.6 22.4l-315.2 44.8-142.4 284.8c-4.8 11.2-16 17.6-28.8 17.6s-24-6.4-28.8-17.6l-139.2-286.4-315.2-46.4c-12.8-1.6-22.4-9.6-25.6-22.4-3.2-11.2 0-24 8-33.6l228.8-220.8-52.8-313.6c-1.6-12.8 3.2-24 12.8-32 4.8-3.2 12.8-6.4 19.2-6.4 4.8 0 11.2 1.6 14.4 3.2l281.6 148.8 281.6-147.2c4.8-1.6 9.6-3.2 14.4-3.2 17.6 0 32 14.4 32 32 0 3.2 0 4.8-1.6 6.4l-54.4 312 227.2 222.4c9.6 11.2 12.8 24 9.6 35.2zM721.6 320l46.4-265.6-240 124.8c-9.6 4.8-20.8 4.8-30.4 0l-238.4-126.4 44.8 265.6c1.6 11.2-1.6 20.8-9.6 28.8l-193.6 187.2 267.2 40c11.2 1.6 19.2 8 24 17.6l120 243.2 120-241.6c4.8-9.6 14.4-16 24-17.6l267.2-38.4-193.6-188.8c-6.4-8-11.2-17.6-8-28.8z" />
<glyph unicode="&#xe930;" glyph-name="stats" d="M904 505.6c65.6 0 120 54.4 120 120s-54.4 120-120 120c-65.6 0-120-54.4-120-120 0-17.6 3.2-35.2 11.2-49.6l1.6-4.8-123.2-123.2-4.8 1.6c-32 14.4-68.8 14.4-100.8 0l-4.8-1.6-52.8 52.8 1.6 4.8c8 16 11.2 33.6 11.2 49.6 0 65.6-54.4 120-120 120s-120-54.4-120-120c0-17.6 3.2-35.2 11.2-49.6l1.6-4.8-123.2-123.2-4.8 1.6c-16 8-33.6 11.2-49.6 11.2-64 0-118.4-54.4-118.4-120s54.4-120 120-120c65.6 0 120 54.4 120 120 0 17.6-3.2 35.2-11.2 49.6l-1.6 4.8 123.2 123.2 4.8-1.6c32-14.4 68.8-14.4 100.8 0l4.8 1.6 52.8-52.8-1.6-4.8c-8-16-11.2-33.6-11.2-49.6 0-65.6 54.4-120 120-120s120 54.4 120 120c0 17.6-3.2 35.2-11.2 49.6l-1.6 4.8 123.2 123.2 4.8-1.6c14.4-6.4 30.4-11.2 48-11.2zM904 673.6c25.6 0 48-20.8 48-48 0-25.6-20.8-48-48-48s-48 20.8-48 48c0 27.2 22.4 48 48 48zM120 222.4c-25.6 0-48 20.8-48 48 0 25.6 20.8 48 48 48s48-20.8 48-48c0-27.2-22.4-48-48-48zM404.8 507.2c-25.6 0-48 20.8-48 48 0 25.6 20.8 48 48 48s48-20.8 48-48c0-25.6-22.4-48-48-48zM619.2 292.8c-25.6 0-48 20.8-48 48 0 25.6 20.8 48 48 48s48-20.8 48-48c0-25.6-22.4-48-48-48z" />
<glyph unicode="&#xe931;" glyph-name="tag-label" d="M1014.4 948.8v0c-6.4 6.4-16 11.2-25.6 11.2s-17.6-3.2-24-9.6l-99.2-102.4-310.4 44.8c-1.6 0-3.2 0-4.8 0-8 0-17.6-3.2-24-9.6l-512-513.6c-12.8-12.8-12.8-33.6 0-48l372.8-372.8c12.8-12.8 35.2-12.8 48 0l513.6 513.6c8 8 11.2 17.6 9.6 28.8l-44.8 310.4 100.8 100.8c12.8 12.8 12.8 32 0 46.4zM888 497.6l-476.8-476.8-326.4 326.4 478.4 476.8 243.2-35.2-99.2-99.2-8 3.2c-33.6 11.2-68.8 1.6-92.8-22.4-35.2-35.2-35.2-94.4 0-129.6 17.6-17.6 40-27.2 64-27.2s48 9.6 64 27.2c24 24 33.6 60.8 22.4 92.8l-3.2 8 99.2 99.2 35.2-243.2zM696 606.4c0-6.4-3.2-12.8-8-17.6s-11.2-6.4-17.6-6.4-12.8 3.2-17.6 6.4c-4.8 4.8-6.4 11.2-6.4 17.6s3.2 12.8 8 17.6c4.8 4.8 11.2 6.4 17.6 6.4s12.8-3.2 17.6-6.4c3.2-4.8 6.4-11.2 6.4-17.6z" />
<glyph unicode="&#xe932;" glyph-name="task" d="M971.2 614.4c-1.6 4.8-4.8 8-6.4 9.6l-324.8 326.4c-3.2 3.2-6.4 4.8-9.6 6.4h-1.6c-4.8 1.6-8 1.6-11.2 3.2h-449.6c-65.6 0-118.4-52.8-118.4-118.4v-787.2c0-65.6 52.8-118.4 118.4-118.4h686.4c65.6 0 120 52.8 120 118.4v544c0 1.6 0 3.2 0 4.8 0 3.2 0 6.4-1.6 8-1.6 3.2-1.6 3.2-1.6 3.2zM649.6 843.2l208-208h-156.8c-27.2 0-51.2 22.4-51.2 51.2v156.8zM905.6 54.4c0-27.2-22.4-51.2-51.2-51.2h-686.4c-27.2 0-51.2 22.4-51.2 51.2v787.2c0 27.2 22.4 51.2 51.2 51.2h412.8v-206.4c0-65.6 52.8-118.4 118.4-118.4h206.4v-513.6z" />
<glyph unicode="&#xe933;" glyph-name="time" d="M760 409.6h-217.6v216c0 17.6-14.4 33.6-33.6 33.6-17.6 0-33.6-14.4-33.6-33.6v-251.2c0 0 0-1.6 1.6-3.2 1.6-12.8 8-22.4 19.2-27.2 4.8-1.6 8-3.2 12.8-3.2h249.6c17.6 0 33.6 14.4 33.6 33.6 1.6 19.2-12.8 35.2-32 35.2zM782.4 731.2l-12.8 9.6 44.8 68.8c3.2 4.8 4.8 9.6 4.8 14.4 0 19.2-14.4 33.6-33.6 33.6-9.6 0-19.2-4.8-25.6-12.8l-3.2-3.2-44.8-67.2-12.8 6.4c-44.8 20.8-91.2 35.2-139.2 40l-14.4 1.6v70.4h68.8c19.2 0 33.6 14.4 33.6 33.6s-14.4 33.6-33.6 33.6h-204.8c-19.2 0-33.6-14.4-33.6-33.6s14.4-33.6 33.6-33.6h68.8v-70.4l-14.4-1.6c-220.8-24-395.2-217.6-395.2-440 0-244.8 198.4-443.2 443.2-443.2s443.2 198.4 443.2 443.2c0 136-65.6 267.2-172.8 350.4zM512 4.8c-206.4 0-376 168-376 376 0 206.4 168 376 376 376 206.4 0 376-168 376-376s-169.6-376-376-376z" />
<glyph unicode="&#xe934;" glyph-name="trash" d="M513.6 657.6c-19.2 0-35.2-16-35.2-35.2v-496c0-19.2 16-35.2 35.2-35.2s35.2 16 35.2 35.2v496c0 19.2-16 35.2-35.2 35.2zM331.2 627.2c-19.2 0-35.2-16-35.2-35.2v-433.6c0-19.2 16-35.2 35.2-35.2s35.2 16 35.2 35.2v433.6c-1.6 19.2-16 35.2-35.2 35.2zM696 627.2c-19.2 0-35.2-16-35.2-35.2v-433.6c0-19.2 16-35.2 35.2-35.2s35.2 16 35.2 35.2v433.6c0 19.2-16 35.2-35.2 35.2zM292.8-64h441.6c86.4 0 156.8 70.4 156.8 156.8v651.2h43.2c19.2 0 35.2 16 35.2 35.2s-16 35.2-35.2 35.2h-203.2v27.2c0 65.6-52.8 118.4-118.4 118.4h-198.4c-65.6 0-118.4-52.8-118.4-118.4v-27.2h-203.2c-19.2 0-35.2-16-35.2-35.2s16-35.2 35.2-35.2h43.2v-651.2c0-86.4 70.4-156.8 156.8-156.8zM364.8 841.6c0 27.2 20.8 48 48 48h200c27.2 0 48-20.8 48-48v-27.2h-296v27.2zM206.4 744h616v-651.2c0 0 0 0 0-1.6 0-48-38.4-86.4-86.4-86.4h-443.2c-48 0-86.4 38.4-86.4 86.4v652.8z" />
<glyph unicode="&#xe935;" glyph-name="unworked" d="M512 235.2c-27.2 0-49.6-22.4-49.6-49.6 0-12.8 4.8-25.6 14.4-35.2s22.4-14.4 35.2-14.4v0c14.4 0 27.2 4.8 35.2 14.4v0c9.6 9.6 14.4 22.4 14.4 35.2s-4.8 25.6-14.4 35.2c-9.6 8-22.4 14.4-35.2 14.4zM512 356.8c9.6 0 17.6 3.2 24 9.6s9.6 14.4 9.6 24l-1.6 339.2c0 17.6-14.4 33.6-33.6 33.6-17.6 0-33.6-14.4-33.6-33.6l1.6-339.2c0-19.2 16-33.6 33.6-33.6zM512 960c-281.6 0-512-230.4-512-512s230.4-512 512-512 512 230.4 512 512c0 281.6-230.4 512-512 512zM512 4.8c-244.8 0-443.2 198.4-443.2 443.2s198.4 443.2 443.2 443.2 443.2-198.4 443.2-443.2c0-244.8-198.4-443.2-443.2-443.2z" />
<glyph unicode="&#xe936;" glyph-name="view" d="M1016 473.6l-1.6 1.6c-9.6 11.2-54.4 68.8-132.8 124.8-113.6 81.6-241.6 126.4-369.6 126.4-129.6 0-257.6-43.2-371.2-126.4-83.2-60.8-129.6-120-134.4-126.4-11.2-14.4-11.2-35.2 0-49.6 8-11.2 52.8-67.2 134.4-126.4 108.8-78.4 232-121.6 355.2-124.8 3.2 0 6.4 0 11.2 0h6.4c6.4 0 11.2 0 16 0 123.2 4.8 244.8 48 352 124.8 86.4 62.4 132.8 126.4 134.4 126.4 11.2 12.8 11.2 33.6 0 49.6zM291.2 286.4c-3.2 1.6-6.4 3.2-11.2 4.8v0c-33.6 16-65.6 35.2-96 57.6-48 33.6-81.6 68.8-102.4 91.2l-6.4 8 4.8 6.4c20.8 22.4 56 57.6 102.4 91.2 30.4 22.4 64 41.6 97.6 57.6l25.6 12.8-12.8-17.6c-30.4-43.2-46.4-94.4-46.4-147.2 0-56 17.6-108.8 49.6-153.6l14.4-19.2-19.2 8zM510.4 256c-105.6 0-192 86.4-192 192 0 94.4 67.2 174.4 160 188.8 22.4 1.6 43.2 1.6 62.4 0 94.4-14.4 163.2-92.8 163.2-187.2 0-107.2-86.4-193.6-193.6-193.6zM944 441.6c-20.8-22.4-56-57.6-102.4-91.2-30.4-22.4-64-41.6-97.6-57.6 0 0-3.2-1.6-9.6-4.8l-20.8-9.6 12.8 17.6c32 44.8 49.6 97.6 49.6 153.6 0 52.8-16 104-46.4 147.2l-11.2 17.6 19.2-8c1.6-1.6 4.8-1.6 6.4-3.2 33.6-16 65.6-35.2 97.6-57.6 46.4-33.6 81.6-68.8 102.4-91.2l6.4-6.4-6.4-6.4zM510.4 555.2c-60.8 0-110.4-49.6-110.4-110.4s49.6-110.4 110.4-110.4c60.8 0 110.4 49.6 110.4 110.4s-49.6 110.4-110.4 110.4zM510.4 401.6c-24 0-43.2 19.2-43.2 43.2s19.2 43.2 43.2 43.2c24 0 43.2-19.2 43.2-43.2s-19.2-43.2-43.2-43.2z" />
<glyph unicode="&#xe937;" glyph-name="request-appt" d="M555.2 564.8h-59.2v48c0 17.6-14.4 32-32 32s-32-14.4-32-32v-48h-201.6v48c0 17.6-14.4 32-32 32s-32-14.4-32-32v-48h-59.2c-59.2 0-107.2-48-107.2-107.2v-409.6c0-59.2 48-107.2 107.2-107.2h448c59.2 0 107.2 48 107.2 107.2v408c0 60.8-48 108.8-107.2 108.8zM609.6 46.4c0-30.4-24-54.4-54.4-54.4h-448c-30.4 0-54.4 24-54.4 54.4v281.6h555.2v-281.6zM609.6 392h-555.2v65.6c0 30.4 24 54.4 54.4 54.4h59.2v-32c0-17.6 14.4-32 32-32s32 14.4 32 32v32h203.2v-32c0-17.6 14.4-32 32-32s32 14.4 32 32v32h59.2c30.4 0 54.4-24 54.4-54.4v-65.6zM859.2 528c-19.2 0-33.6-14.4-33.6-33.6s14.4-33.6 33.6-33.6 33.6 14.4 33.6 33.6c0 17.6-16 33.6-33.6 33.6zM969.6 926.4c-46.4 36.8-108.8 43.2-164.8 17.6s-92.8-76.8-96-129.6c0-9.6 3.2-17.6 9.6-24s14.4-11.2 24-11.2c9.6 0 17.6 1.6 24 8s11.2 14.4 11.2 24c0 28.8 22.4 57.6 54.4 72 33.6 14.4 68.8 11.2 94.4-9.6 20.8-16 32-43.2 28.8-70.4-4.8-40-38.4-83.2-91.2-83.2-17.6 0-33.6-14.4-33.6-32l-3.2-73.6c0-9.6 3.2-17.6 9.6-24s14.4-11.2 24-11.2c19.2 0 33.6 14.4 35.2 32v44.8l6.4 1.6c64 16 112 72 120 137.6 6.4 49.6-14.4 99.2-52.8 131.2z" />
<glyph unicode="&#xe938;" glyph-name="search2" d="M1024 60.8c0 22.4-8 43.2-24 57.6l-323.2 323.2 3.2 6.4c24 49.6 35.2 100.8 35.2 153.6 0 198.4-160 358.4-356.8 358.4s-358.4-160-358.4-358.4c0-196.8 160-358.4 358.4-358.4 54.4 0 107.2 12.8 156.8 36.8l6.4 3.2 4.8-4.8c52.8-54.4 315.2-318.4 315.2-318.4 16-16 36.8-24 57.6-24 22.4 0 43.2 8 59.2 24l41.6 41.6c16 16 24 36.8 24 59.2zM358.4 312c-160 0-289.6 129.6-289.6 289.6s129.6 289.6 289.6 289.6c160 0 289.6-129.6 289.6-289.6s-129.6-289.6-289.6-289.6zM953.6 49.6v0l-57.6-48-315.2 321.6 8 6.4c16 14.4 32 28.8 44.8 44.8l6.4 8 312-312c6.4-4.8 6.4-16 1.6-20.8z" />
<glyph unicode="&#xe939;" glyph-name="cursor" d="M896 464v0c1.6 12.8-4.8 25.6-16 33.6l-705.6 457.6c-11.2 6.4-24 8-35.2 1.6-9.6-8-17.6-19.2-17.6-30.4v-808c0-12.8 8-24 19.2-30.4s25.6-4.8 35.2 3.2l204.8 152 1.6-3.2 184-288c6.4-9.6 17.6-16 28.8-16 0 0 0 0 0 0 6.4 0 11.2 1.6 17.6 4.8l185.6 107.2c8 4.8 12.8 12.8 16 20.8 1.6 9.6 0 17.6-4.8 25.6l-172.8 275.2 235.2 65.6c12.8 4.8 22.4 16 24 28.8zM574.4 422.4c-9.6-3.2-19.2-11.2-22.4-20.8s-3.2-20.8 3.2-30.4l179.2-281.6-128-75.2-188.8 296c-4.8 8-12.8 12.8-22.4 16-1.6 0-3.2 0-6.4 0-8 0-14.4-3.2-20.8-6.4l-179.2-132.8v676.8l592-382.4-206.4-59.2z" />
<glyph unicode="&#xe93a;" glyph-name="envelope-open" d="M56-59.2h912c30.4 0 56 25.6 56 56v596.8c0 4.8-3.2 8-8 11.2v0c-372.8 296-372.8 296-372.8 296-43.2 33.6-89.6 49.6-134.4 49.6s-89.6-16-126.4-49.6l-374.4-294.4c-4.8-3.2-6.4-8-8-14.4v0-595.2c0-30.4 25.6-56 56-56zM947.2 492.8c4.8-3.2 8-8 8-12.8v-243.2c0-6.4-3.2-11.2-9.6-14.4-1.6-1.6-4.8-1.6-6.4-1.6-3.2 0-6.4 1.6-9.6 3.2l-177.6 140.8c-4.8 3.2-6.4 8-6.4 12.8s3.2 9.6 8 12.8l177.6 102.4c4.8 3.2 11.2 3.2 16 0zM92.8 585.6v0l332.8 262.4c49.6 44.8 123.2 44.8 172.8 0l332.8-262.4c6.4-4.8 6.4-9.6 6.4-12.8 0-4.8-4.8-9.6-11.2-14.4l-233.6-134.4c-6.4-3.2-12.8-3.2-17.6 1.6l-33.6 25.6c-84.8 67.2-187.2 67.2-260.8 0l-33.6-25.6c-3.2-1.6-6.4-3.2-9.6-3.2s-4.8 0-8 1.6l-232 134.4c-6.4 3.2-9.6 8-11.2 14.4 0 1.6 0 8 6.4 12.8zM68.8 480c0 4.8 3.2 11.2 8 12.8 4.8 3.2 11.2 3.2 16 0l177.6-102.4c4.8-3.2 8-8 8-12.8s-1.6-9.6-6.4-12.8l-177.6-140.8c-3.2-1.6-6.4-3.2-9.6-3.2-1.6 0-4.8 0-6.4 1.6-4.8 3.2-8 8-8 14.4v243.2zM68.8 108.8c0 4.8 1.6 9.6 6.4 12.8l350.4 276.8c49.6 44.8 123.2 44.8 172.8 0l350.4-276.8c3.2-3.2 6.4-8 6.4-12.8v-84.8c0-8-6.4-16-16-16h-854.4c-8 0-16 6.4-16 16v84.8z" />
<glyph unicode="&#xe93b;" glyph-name="map" d="M0 780.8v-707.2c0-16 11.2-30.4 27.2-33.6l316.8-70.4c4.8-1.6 9.6-1.6 14.4 0l316.8 68.8h1.6l307.2-68.8c9.6-1.6 20.8 0 28.8 6.4s12.8 16 12.8 27.2v707.2c0 16-11.2 30.4-27.2 33.6l-110.4 25.6-1.6 4.8c-32 89.6-116.8 152-212.8 152s-180.8-60.8-211.2-152l-1.6-4.8-110.4-24h-1.6l-307.2 68.8c-3.2 0-4.8 1.6-8 1.6-8 0-14.4-3.2-20.8-8-8-6.4-12.8-16-12.8-27.2zM896 688v9.6l59.2-12.8v-636.8l-248 56v252.8l3.2 1.6c41.6 40 176 180.8 185.6 329.6zM673.6 857.6c84.8 0 155.2-70.4 155.2-155.2 0-108.8-92.8-220.8-148.8-278.4l-6.4-6.4-6.4 6.4c-44.8 46.4-148.8 164.8-148.8 278.4 0 86.4 68.8 155.2 155.2 155.2zM384 683.2l65.6 14.4v-9.6c8-147.2 145.6-289.6 187.2-329.6l3.2-1.6v-254.4l-256-56v636.8zM67.2 739.2l248-56v-636.8l-248 56v636.8zM750.4 702.4c0-42.415-34.385-76.8-76.8-76.8s-76.8 34.385-76.8 76.8c0 42.415 34.385 76.8 76.8 76.8s76.8-34.385 76.8-76.8z" />
<glyph unicode="&#xe93c;" glyph-name="folder-plus" d="M630.4 356.8h-83.2v83.2c0 19.2-16 35.2-35.2 35.2s-35.2-16-35.2-35.2v-83.2h-83.2c-19.2 0-35.2-16-35.2-35.2s16-35.2 35.2-35.2h83.2v-83.2c0-19.2 16-35.2 35.2-35.2s35.2 16 35.2 35.2v83.2h83.2c19.2 0 35.2 16 35.2 35.2s-16 35.2-35.2 35.2zM921.6 801.6h-380.8l-1.6 4.8c-16 38.4-52.8 64-94.4 64h-342.4c-56-1.6-102.4-46.4-102.4-104v-673.6c0-36.8 30.4-67.2 67.2-67.2h889.6c36.8 0 67.2 30.4 67.2 67.2v606.4c0 56-46.4 102.4-102.4 102.4zM952 97.6h-880l-3.2 668.8c0 19.2 14.4 33.6 33.6 33.6h340.8c19.2 0 33.6-14.4 33.6-33.6v-193.6h443.2c19.2 0 33.6-14.4 33.6-33.6l-1.6-441.6zM955.2 636.8l-9.6 3.2c-8 1.6-16 3.2-24 3.2h-376v91.2h374.4c19.2 0 33.6-16 33.6-33.6v-64z" />
<glyph unicode="&#xe93d;" glyph-name="delete" d="M564.8 448v0l177.6 177.6c14.4 14.4 14.4 38.4 0 52.8-6.4 6.4-16 11.2-27.2 11.2 0 0 0 0 0 0-9.6 0-19.2-3.2-27.2-11.2l-176-177.6-177.6 177.6c-14.4 14.4-38.4 14.4-52.8 0-6.4-6.4-11.2-16-11.2-27.2 0-9.6 3.2-19.2 11.2-27.2l177.6-176-177.6-177.6c-6.4-6.4-11.2-16-11.2-27.2 0-9.6 3.2-19.2 11.2-27.2 14.4-14.4 38.4-14.4 52.8 0l177.6 179.2 177.6-177.6c14.4-14.4 38.4-14.4 52.8 0 6.4 6.4 11.2 16 11.2 27.2 0 9.6-3.2 19.2-11.2 27.2l-177.6 176zM512 960c-281.6 0-512-230.4-512-512s230.4-512 512-512 512 230.4 512 512c0 281.6-230.4 512-512 512zM512 4.8c-244.8 0-443.2 198.4-443.2 443.2s198.4 443.2 443.2 443.2 443.2-198.4 443.2-443.2c0-244.8-198.4-443.2-443.2-443.2z" />
<glyph unicode="&#xe93e;" glyph-name="reply" d="M404.8 836.8c-3.2 1.6-8 3.2-14.4 3.2-8 0-16-1.6-24-11.2l-355.2-355.2c-6.4-6.4-11.2-14.4-11.2-24s3.2-20.8 11.2-28.8l355.2-355.2c14.4-14.4 32-11.2 38.4-8 14.4 6.4 24 19.2 24 33.6v172.8h9.6c180.8 8 326.4 64 430.4 168 153.6 153.6 155.2 363.2 155.2 371.2 0 17.6-12.8 35.2-35.2 35.2-11.2 0-25.6-4.8-32-17.6-94.4-168-339.2-192-476.8-192h-51.2v174.4c0 14.4-9.6 27.2-24 33.6zM480 555.2c100.8 0 289.6 14.4 425.6 108.8l27.2 17.6-11.2-30.4c-52.8-144-187.2-315.2-528-315.2-20.8 0-38.4-16-38.4-35.2v-120l-265.6 267.2 264 267.2v-120c0-17.6 16-33.6 33.6-35.2 0 0 1.6 0 4.8 0 11.2-1.6 41.6-4.8 88-4.8z" />
<glyph unicode="&#xe93f;" glyph-name="stack-minus" d="M982.4 556.8l-70.4 65.6v96c0 72-59.2 131.2-131.2 131.2h-112l-81.6 76.8c-25.6 24-57.6 36.8-94.4 35.2-35.2-1.6-67.2-16-91.2-41.6l-64-72h-96c-72 0-129.6-57.6-129.6-129.6v-112l-76.8-81.6c-24-25.6-36.8-59.2-35.2-94.4s16-67.2 41.6-91.2l70.4-65.6v-96c0-72 59.2-131.2 131.2-131.2h112l81.6-76.8c25.6-24 57.6-35.2 89.6-35.2 35.2 0 70.4 14.4 96 41.6l65.6 70.4h96c72 0 131.2 59.2 131.2 131.2v112l76.8 81.6c46.4 52.8 43.2 136-9.6 185.6zM782.4 787.2c38.4 0 70.4-32 70.4-70.4v-38.4l-116.8 108.8h46.4zM172.8 718.4c0 38.4 32 70.4 70.4 70.4h38.4l-108.8-116.8v46.4zM241.6 108.8c-38.4 0-70.4 32-70.4 70.4v38.4l115.2-108.8h-44.8zM851.2 177.6c0-38.4-32-70.4-70.4-70.4h-38.4l108.8 116.8v-46.4zM937.6 411.2l-371.2-390.4c-12.8-12.8-28.8-20.8-46.4-20.8-19.2 0-35.2 6.4-48 17.6l-392 371.2c-27.2 25.6-28.8 68.8-3.2 94.4l371.2 392c12.8 12.8 30.4 20.8 49.6 20.8 17.6 0 33.6-6.4 46.4-17.6l392-371.2c12.8-12.8 20.8-28.8 20.8-46.4 0-19.2-6.4-35.2-19.2-49.6zM628.8 483.2h-217.6c-19.2 0-35.2-16-35.2-35.2s16-35.2 35.2-35.2h217.6c19.2 0 35.2 16 35.2 35.2s-16 35.2-35.2 35.2z" />
<glyph unicode="&#xe940;" glyph-name="stack-plus" d="M982.4 556.8l-70.4 65.6v96c0 72-59.2 131.2-131.2 131.2h-112l-81.6 76.8c-25.6 24-57.6 36.8-94.4 35.2-35.2-1.6-67.2-16-91.2-41.6l-64-72h-96c-72 0-129.6-57.6-129.6-129.6v-112l-76.8-81.6c-24-25.6-36.8-59.2-35.2-94.4s16-67.2 41.6-91.2l70.4-65.6v-96c0-72 59.2-131.2 131.2-131.2h112l81.6-76.8c25.6-24 57.6-35.2 89.6-35.2 35.2 0 70.4 14.4 96 41.6l65.6 70.4h96c72 0 131.2 59.2 131.2 131.2v112l76.8 81.6c46.4 52.8 43.2 136-9.6 185.6zM782.4 787.2c38.4 0 70.4-32 70.4-70.4v-38.4l-116.8 108.8h46.4zM172.8 718.4c0 38.4 32 70.4 70.4 70.4h38.4l-108.8-116.8v46.4zM241.6 108.8c-38.4 0-70.4 32-70.4 70.4v38.4l115.2-108.8h-44.8zM851.2 177.6c0-38.4-32-70.4-70.4-70.4h-38.4l108.8 116.8v-46.4zM937.6 411.2l-371.2-390.4c-12.8-12.8-28.8-20.8-46.4-20.8-19.2 0-35.2 6.4-48 17.6l-392 371.2c-27.2 25.6-28.8 68.8-3.2 94.4l371.2 392c12.8 12.8 30.4 20.8 49.6 20.8 17.6 0 33.6-6.4 46.4-17.6l392-371.2c12.8-12.8 20.8-28.8 20.8-46.4 0-19.2-6.4-35.2-19.2-49.6zM628.8 483.2h-70.4v73.6c0 19.2-16 35.2-35.2 35.2s-35.2-16-35.2-35.2v-73.6h-75.2c-19.2 0-35.2-16-35.2-35.2s16-35.2 35.2-35.2h75.2v-73.6c0-19.2 16-35.2 35.2-35.2s35.2 16 35.2 35.2v73.6h72c19.2 0 35.2 16 35.2 35.2-1.6 19.2-17.6 35.2-36.8 35.2z" />
<glyph unicode="&#xe941;" glyph-name="search-controls" d="M451.2 934.4c-16-16-25.6-36.8-25.6-60.8v-3.2c0-46.4 38.4-84.8 84.8-84.8 48 0 86.4 38.4 86.4 86.4s-36.8 88-84.8 88c-24 0-44.8-9.6-60.8-25.6zM427.2 448c0-46.4 38.4-84.8 84.8-84.8s84.8 38.4 84.8 84.8-36.8 84.8-84.8 84.8c-46.4 0-84.8-38.4-84.8-84.8zM425.6 24v-1.6c0-46.4 38.4-84.8 84.8-84.8 48 0 86.4 38.4 86.4 86.4s-38.4 86.4-86.4 86.4c-46.4-1.6-83.2-40-84.8-86.4z" />
<glyph unicode="&#xe942;" glyph-name="email-list" d="M347.2 744h646.4c17.6 0 30.4 16 30.4 35.2s-14.4 35.2-30.4 35.2h-646.4c-17.6 0-30.4-16-30.4-35.2s14.4-35.2 30.4-35.2zM352 412.8h473.6c19.2 0 35.2 16 35.2 35.2s-16 35.2-35.2 35.2h-473.6c-19.2 0-35.2-16-35.2-35.2s16-35.2 35.2-35.2zM993.6 153.6h-646.4c-17.6 0-30.4-16-30.4-35.2s14.4-35.2 30.4-35.2h646.4c17.6 0 30.4 16 30.4 35.2 0 17.6-14.4 35.2-30.4 35.2zM54.4 833.6c-30.4 0-54.4-24-54.4-54.4s24-54.4 54.4-54.4c30.4 0 54.4 24 54.4 54.4s-24 54.4-54.4 54.4zM54.4 502.4c-30.4 0-54.4-24-54.4-54.4s24-54.4 54.4-54.4c30.4 0 54.4 24 54.4 54.4s-24 54.4-54.4 54.4zM54.4 171.2c-30.4 0-54.4-24-54.4-54.4s24-54.4 54.4-54.4c30.4 0 54.4 24 54.4 54.4s-24 54.4-54.4 54.4z" />
<glyph unicode="&#xe943;" glyph-name="left" d="M988.8 483.2h-953.6c-19.2 0-35.2-16-35.2-35.2s16-35.2 35.2-35.2h952c19.2 0 35.2 16 35.2 35.2 1.6 19.2-14.4 35.2-33.6 35.2zM35.2 184h424c19.2 0 35.2 16 35.2 35.2s-16 35.2-35.2 35.2h-424c-19.2 1.6-35.2-14.4-35.2-33.6 0-20.8 16-36.8 35.2-36.8zM988.8 28.8h-953.6c-19.2 0-35.2-16-35.2-35.2s16-35.2 35.2-35.2h952c19.2 0 35.2 16 35.2 35.2 1.6 19.2-14.4 35.2-33.6 35.2zM35.2 867.2h952c19.2 0 35.2 16 35.2 35.2s-16 35.2-35.2 35.2h-952c-19.2 1.6-35.2-14.4-35.2-33.6 0-20.8 16-36.8 35.2-36.8zM35.2 640h424c19.2 0 35.2 16 35.2 35.2s-16 35.2-35.2 35.2h-424c-19.2 0-35.2-16-35.2-35.2s16-35.2 35.2-35.2z" />
<glyph unicode="&#xe944;" glyph-name="right" d="M35.2 412.8h952c19.2 0 35.2 16 35.2 35.2s-16 35.2-35.2 35.2h-952c-19.2 0-35.2-16-35.2-35.2s16-35.2 35.2-35.2zM988.8 712h-425.6c-19.2 0-35.2-16-35.2-35.2s16-35.2 35.2-35.2h424c19.2 0 35.2 16 35.2 35.2 1.6 19.2-14.4 35.2-33.6 35.2zM35.2 867.2h952c19.2 0 35.2 16 35.2 35.2s-16 35.2-35.2 35.2h-952c-19.2 1.6-35.2-14.4-35.2-33.6 0-20.8 16-36.8 35.2-36.8zM988.8 28.8h-953.6c-19.2 0-35.2-16-35.2-35.2s16-35.2 35.2-35.2h952c19.2 0 35.2 16 35.2 35.2 1.6 19.2-14.4 35.2-33.6 35.2zM988.8 256h-425.6c-19.2 0-35.2-16-35.2-35.2s16-35.2 35.2-35.2h424c19.2 0 35.2 16 35.2 35.2 1.6 19.2-14.4 35.2-33.6 35.2z" />
<glyph unicode="&#xe945;" glyph-name="indent-right" d="M59.2 230.4l193.6 193.6c6.4 6.4 9.6 14.4 9.6 24s-3.2 17.6-9.6 24l-193.6 193.6c-6.4 6.4-16 9.6-24 9.6-9.6 0-17.6-3.2-24-9.6s-9.6-16-9.6-24c0-9.6 3.2-17.6 9.6-24l168-169.6-169.6-168c-6.4-6.4-9.6-16-9.6-24 0-9.6 3.2-17.6 9.6-24 12.8-14.4 36.8-14.4 49.6-1.6zM987.2 27.2h-952c-19.2 0-35.2-16-35.2-35.2s16-35.2 35.2-35.2h952c19.2 0 35.2 16 35.2 35.2s-16 35.2-35.2 35.2zM987.2 937.6h-952c-19.2 0-35.2-14.4-35.2-33.6s16-35.2 35.2-35.2h952c19.2 0 35.2 16 35.2 35.2s-16 33.6-35.2 33.6zM987.2 254.4h-424c-19.2 0-35.2-16-35.2-35.2s16-35.2 35.2-35.2h424c19.2 0 35.2 16 35.2 35.2 0 20.8-16 35.2-35.2 35.2zM987.2 710.4h-424c-19.2 0-35.2-16-35.2-35.2s16-35.2 35.2-35.2h424c19.2 0 35.2 16 35.2 35.2s-16 35.2-35.2 35.2zM987.2 483.2h-424c-19.2 0-35.2-16-35.2-35.2s16-35.2 35.2-35.2h424c19.2 0 35.2 16 35.2 35.2s-16 35.2-35.2 35.2z" />
<glyph unicode="&#xe946;" glyph-name="indent-left" d="M203.2 665.6l-193.6-192c-6.4-8-9.6-16-9.6-25.6s3.2-17.6 9.6-24l193.6-193.6c6.4-6.4 16-9.6 24-9.6 9.6 0 17.6 3.2 24 9.6s9.6 16 9.6 24c0 9.6-3.2 17.6-9.6 24l-168 169.6 168 168c6.4 6.4 9.6 16 9.6 24 0 9.6-3.2 17.6-9.6 24-12.8 14.4-35.2 14.4-48 1.6zM987.2 27.2h-952c-19.2 0-35.2-16-35.2-35.2s16-35.2 35.2-35.2h952c19.2 0 35.2 16 35.2 35.2s-16 35.2-35.2 35.2zM987.2 937.6h-952c-19.2 0-35.2-14.4-35.2-33.6s16-35.2 35.2-35.2h952c19.2 0 35.2 16 35.2 35.2s-16 33.6-35.2 33.6zM987.2 254.4h-424c-19.2 0-35.2-16-35.2-35.2s16-35.2 35.2-35.2h424c19.2 0 35.2 16 35.2 35.2 0 20.8-16 35.2-35.2 35.2zM987.2 710.4h-424c-19.2 0-35.2-16-35.2-35.2s16-35.2 35.2-35.2h424c19.2 0 35.2 16 35.2 35.2s-16 35.2-35.2 35.2zM987.2 483.2h-424c-19.2 0-35.2-16-35.2-35.2s16-35.2 35.2-35.2h424c19.2 0 35.2 16 35.2 35.2s-16 35.2-35.2 35.2z" />
<glyph unicode="&#xe947;" glyph-name="center" d="M265.6 217.6c0-19.2 16-35.2 35.2-35.2h422.4c19.2 0 35.2 16 35.2 35.2s-16 35.2-35.2 35.2h-422.4c-19.2 1.6-35.2-14.4-35.2-35.2zM38.4 934.4c-19.2 0-35.2-16-35.2-35.2s16-35.2 35.2-35.2h948.8c19.2 0 35.2 16 35.2 35.2s-16 35.2-35.2 35.2h-948.8zM758.4 672c0 19.2-16 35.2-35.2 35.2h-422.4c-19.2 0-35.2-16-35.2-35.2s16-35.2 35.2-35.2h422.4c19.2-1.6 35.2 14.4 35.2 35.2zM38.4 409.6h948.8c19.2 0 35.2 16 35.2 35.2s-16 35.2-35.2 35.2h-948.8c-19.2 0-35.2-16-35.2-35.2-1.6-19.2 14.4-35.2 35.2-35.2zM985.6-44.8c19.2 0 35.2 16 35.2 35.2s-16 35.2-35.2 35.2h-947.2c-19.2 0-35.2-16-35.2-35.2s16-35.2 35.2-35.2h947.2z" />
<glyph unicode="&#xe948;" glyph-name="numbers" d="M396.8 576h440c19.2 0 33.6 16 33.6 33.6 0 19.2-16 33.6-33.6 33.6h-440c-19.2 0-33.6-16-33.6-33.6-1.6-17.6 14.4-33.6 33.6-33.6zM392 777.6h600c16 0 28.8 16 28.8 33.6 0 20.8-12.8 35.2-28.8 35.2h-600c-16 0-28.8-16-28.8-33.6-1.6-19.2 11.2-35.2 28.8-35.2zM992 323.2h-600c-16 0-28.8-16-28.8-33.6 0-19.2 12.8-33.6 28.8-33.6h600c16 0 28.8 16 28.8 33.6 0 19.2-12.8 33.6-28.8 33.6zM836.8 121.6h-440c-19.2 0-33.6-16-33.6-33.6 0-19.2 16-33.6 33.6-33.6h440c19.2 0 33.6 16 33.6 33.6 0 19.2-16 33.6-33.6 33.6zM56 792c6.4 0 11.2 1.6 17.6 4.8l25.6 12.8v-193.6h-40c-19.2 0-33.6-14.4-33.6-33.6s14.4-33.6 33.6-33.6h140.8c19.2 0 33.6 14.4 33.6 33.6s-14.4 33.6-33.6 33.6h-30.4v241.6c0 19.2-16 35.2-35.2 35.2h-11.2c-6.4 0-12.8-1.6-19.2-4.8l-60.8-32c-12.8-6.4-19.2-17.6-19.2-32-1.6-17.6 12.8-32 32-32zM134.4 104v0c52.8 35.2 116.8 78.4 116.8 142.4 0 60.8-49.6 105.6-118.4 105.6-38.4 0-75.2-8-107.2-25.6-11.2-6.4-17.6-16-17.6-28.8 0-17.6 14.4-32 32-32 6.4 0 12.8 3.2 14.4 3.2 22.4 9.6 46.4 16 72 16 57.6 0 57.6-32 57.6-41.6 0-27.2-36.8-51.2-75.2-75.2-49.6-32-105.6-68.8-105.6-126.4 0-22.4 16-38.4 38.4-38.4h174.4c19.2 0 33.6 14.4 33.6 33.6s-14.4 33.6-33.6 33.6h-128l4.8 4.8c11.2 8 27.2 19.2 41.6 28.8z" />
<glyph unicode="&#xe949;" glyph-name="italic" d="M867.2 886.4c8 1.6 16 6.4 22.4 12.8 6.4 8 9.6 16 9.6 25.6 0 19.2-16 35.2-35.2 35.2h-512c-19.2 0-35.2-16-35.2-35.2s12.8-33.6 28.8-36.8c30.4-4.8 70.4-11.2 102.4-27.2 17.6-8 32-19.2 40-30.4 11.2-14.4 16-28.8 16-48 0-32-9.6-62.4-17.6-92.8l-3.2-17.6c-11.2-40-27.2-99.2-46.4-168-43.2-160-97.6-356.8-110.4-395.2-11.2-28.8-46.4-92.8-169.6-102.4-9.6 0-17.6-4.8-22.4-11.2s-9.6-14.4-9.6-24c0-19.2 16-35.2 35.2-35.2h512c19.2 0 35.2 16 35.2 35.2 0 17.6-12.8 33.6-30.4 35.2l-12.8 1.6c-46.4 4.8-105.6 12.8-131.2 46.4-12.8 16-17.6 36.8-12.8 64 1.6 16 6.4 32 11.2 49.6v0c1.6 8 4.8 16 6.4 24 0 1.6 36.8 140.8 75.2 289.6 51.2 190.4 81.6 299.2 88 313.6 12.8 28.8 35.2 49.6 67.2 64 27.2 14.4 60.8 22.4 99.2 27.2z" />
<glyph unicode="&#xe94a;" glyph-name="underline" d="M512 179.2c174.4 0 315.2 140.8 315.2 315.2v427.2c0 20.8-17.6 38.4-38.4 38.4s-38.4-17.6-38.4-38.4v-427.2c0-131.2-107.2-238.4-238.4-238.4s-238.4 107.2-238.4 238.4v427.2c0 20.8-17.6 38.4-38.4 38.4s-38.4-17.6-38.4-38.4v-427.2c0-172.8 140.8-315.2 315.2-315.2zM928 8h-832c-20.8 0-36.8-16-36.8-36.8s17.6-35.2 36.8-35.2h832c20.8 0 36.8 16 36.8 36.8s-17.6 35.2-36.8 35.2z" />
<glyph unicode="&#xe94b;" glyph-name="strike-through" d="M992 480h-116.8v384c0 19.2-14.4 33.6-33.6 33.6s-33.6-14.4-33.6-33.6v-384h-590.4v384c0 19.2-14.4 33.6-33.6 33.6s-33.6-14.4-33.6-33.6v-384h-116.8c-17.6 0-33.6-14.4-33.6-33.6s14.4-33.6 33.6-33.6h116.8v-56c0-200 161.6-361.6 361.6-361.6s361.6 163.2 361.6 361.6v56h118.4c19.2 0 33.6 14.4 33.6 33.6s-16 33.6-33.6 33.6zM808 414.4v-56c0-163.2-132.8-294.4-294.4-294.4-163.2 0-294.4 132.8-294.4 294.4v56h588.8z" />
<glyph unicode="&#xe94c;" glyph-name="bold" d="M115.2-4.8c0-32 27.2-59.2 59.2-59.2h360c248 0 374.4 96 374.4 283.2 0 155.2-124.8 217.6-198.4 241.6l-20.8 6.4 19.2 8c52.8 24 140.8 84.8 140.8 222.4 1.6 163.2-120 262.4-323.2 262.4h-352c-32 0-59.2-27.2-59.2-60.8v-904zM235.2 849.6h280c137.6 0 222.4-62.4 222.4-161.6 0-120-81.6-177.6-248-177.6h-256v339.2zM235.2 403.2h288c182.4 0 272-57.6 272-177.6 0-123.2-86.4-179.2-273.6-179.2h-286.4v356.8z" />
<glyph unicode="&#xe94d;" glyph-name="link" d="M976 771.2v0l-134.4 134.4c-64 64-166.4 64-230.4 0l-172.8-172.8c-12.8-12.8-12.8-36.8 1.6-51.2 12.8-12.8 36.8-14.4 49.6-1.6l6.4 4.8 168 168c16 16 38.4 25.6 62.4 25.6s46.4-9.6 62.4-25.6l134.4-134.4c35.2-35.2 33.6-91.2 0-124.8l-172.8-172.8c-4.8-6.4-8-14.4-8-22.4 0-9.6 3.2-19.2 11.2-25.6 14.4-14.4 38.4-14.4 52.8 0l169.6 168c62.4 64 62.4 166.4 0 230.4zM595.2 188.8c0 9.6-3.2 19.2-11.2 25.6-14.4 14.4-35.2 14.4-49.6 1.6l-6.4-4.8-168-168c-35.2-35.2-91.2-35.2-124.8 0l-134.4 134.4c-16 16-25.6 38.4-25.6 62.4s9.6 46.4 25.6 62.4l171.2 172.8c4.8 6.4 8 14.4 8 22.4 0 9.6-3.2 19.2-11.2 25.6-6.4 6.4-16 11.2-25.6 11.2s-19.2-3.2-25.6-11.2l-169.6-168c-30.4-30.4-48-72-48-115.2s17.6-84.8 48-115.2l134.4-134.4c30.4-30.4 72-48 115.2-48s84.8 17.6 115.2 48l172.8 172.8c4.8 6.4 9.6 16 9.6 25.6zM689.6 636.8c-14.4 14.4-38.4 14.4-52.8 0l-313.6-315.2c-6.4-6.4-11.2-16-11.2-25.6s3.2-19.2 11.2-25.6c14.4-14.4 38.4-14.4 52.8 0l315.2 315.2c12.8 12.8 12.8 36.8-1.6 51.2z" />
<glyph unicode="&#xe94e;" glyph-name="side-menu-1" d="M120 416h867.2c19.2 0 35.2 16 35.2 35.2s-16 35.2-35.2 35.2h-867.2l168 168c14.4 14.4 14.4 36.8 0 49.6-12.8 12.8-36.8 12.8-49.6 0l-228.8-228.8c-3.2-3.2-6.4-6.4-8-11.2 0-1.6 0-3.2 0-4.8l-1.6-4.8c0-1.6 0-1.6-1.6-3.2v-1.6c0-9.6 3.2-19.2 9.6-25.6l227.2-227.2c12.8-12.8 36.8-12.8 49.6 0 14.4 14.4 14.4 36.8 0 49.6l-164.8 169.6zM987.2 713.6h-508.8c-19.2 0-35.2-16-35.2-35.2s16-35.2 35.2-35.2h508.8c19.2 0 35.2 16 35.2 35.2s-16 35.2-35.2 35.2zM478.4 187.2h508.8c19.2 0 35.2 16 35.2 35.2s-16 35.2-35.2 35.2h-508.8c-19.2 0-35.2-16-35.2-35.2s16-35.2 35.2-35.2z" />
<glyph unicode="&#xe94f;" glyph-name="side-menu-2" d="M902.4 484.8h-867.2c-19.2 0-35.2-16-35.2-35.2s16-35.2 35.2-35.2h867.2l-168-168c-14.4-14.4-14.4-36.8 0-49.6 12.8-12.8 36.8-12.8 49.6 0l228.8 228.8c3.2 3.2 6.4 6.4 8 11.2 0 1.6 0 3.2 0 4.8l1.6 4.8c0 1.6 0 1.6 1.6 3.2v1.6c0 9.6-3.2 19.2-9.6 25.6l-230.4 227.2c-12.8 12.8-36.8 12.8-49.6 0-14.4-14.4-14.4-36.8 0-49.6l168-169.6zM35.2 187.2h508.8c19.2 0 35.2 16 35.2 35.2s-16 35.2-35.2 35.2h-508.8c-19.2 0-35.2-16-35.2-35.2s16-35.2 35.2-35.2zM544 713.6h-508.8c-19.2 0-35.2-16-35.2-35.2s16-35.2 35.2-35.2h508.8c19.2 0 35.2 16 35.2 35.2s-16 35.2-35.2 35.2z" />
<glyph unicode="&#xe950;" glyph-name="quick-action" d="M1014.4 539.2c-12.8 12.8-35.2 12.8-49.6 0l-108.8-108.8-108.8 108.8c-6.4 6.4-16 9.6-24 9.6-9.6 0-17.6-3.2-24-9.6-12.8-12.8-12.8-35.2 0-49.6l132.8-132.8c6.4-6.4 14.4-9.6 22.4-9.6h4.8c8 0 16 4.8 22.4 9.6l132.8 132.8c6.4 6.4 9.6 14.4 9.6 24 0 11.2-3.2 19.2-9.6 25.6zM499.2 691.2h-462.4c-19.2 0-35.2-16-35.2-35.2s16-35.2 35.2-35.2h462.4c19.2 0 35.2 16 35.2 35.2s-16 35.2-35.2 35.2zM499.2 275.2h-462.4c-19.2 0-35.2-16-35.2-35.2s16-35.2 35.2-35.2h462.4c19.2 0 35.2 16 35.2 35.2s-16 35.2-35.2 35.2zM499.2 483.2h-462.4c-19.2 0-35.2-16-35.2-35.2s16-35.2 35.2-35.2h462.4c19.2 0 35.2 16 35.2 35.2s-16 35.2-35.2 35.2z" />
<glyph unicode="&#xe951;" glyph-name="overflow-menu" d="M142.4 913.6v0c-48 0-86.4-38.4-86.4-86.4v-3.2c0-48 38.4-86.4 86.4-86.4s88 40 88 88-40 88-88 88zM142.4 155.2v0c-22.4 0-44.8-9.6-60.8-25.6s-25.6-38.4-25.6-60.8v-1.6c0-48 38.4-86.4 86.4-86.4s86.4 38.4 86.4 86.4c0 48-38.4 88-86.4 88zM142.4 360c48 0 86.4 38.4 86.4 86.4s-38.4 86.4-86.4 86.4c-48 0-86.4-38.4-86.4-86.4s38.4-86.4 86.4-86.4zM513.6 155.2c0 0 0 0 0 0-22.4 0-44.8-9.6-60.8-25.6s-25.6-38.4-25.6-60.8v-1.6c0-48 38.4-86.4 86.4-86.4s86.4 38.4 86.4 86.4c1.6 48-38.4 88-86.4 88zM513.6 913.6v0c-22.4 0-44.8-9.6-60.8-25.6s-25.6-38.4-25.6-60.8v-3.2c0-48 38.4-86.4 86.4-86.4s88 40 88 88-38.4 88-88 88zM513.6 360c48 0 86.4 38.4 86.4 86.4s-38.4 86.4-86.4 86.4-86.4-38.4-86.4-86.4c1.6-48 40-86.4 86.4-86.4zM886.4 531.2c-48 0-86.4-38.4-86.4-86.4s38.4-86.4 86.4-86.4 86.4 38.4 86.4 86.4c0 48-38.4 86.4-86.4 86.4zM886.4 155.2v0c-48 0-86.4-38.4-86.4-86.4v-1.6c0-48 38.4-86.4 86.4-86.4s86.4 38.4 86.4 86.4c0 48-38.4 88-86.4 88zM886.4 737.6c48 0 88 40 88 88s-40 88-88 88c0 0 0 0 0 0-48 0-86.4-38.4-86.4-86.4v-3.2c0-48 40-86.4 86.4-86.4z" />
<glyph unicode="&#xe952;" glyph-name="drag-menu" d="M560 198.4h-97.6c-44.8 0-83.2-36.8-83.2-83.2v-97.6c0-44.8 36.8-83.2 83.2-83.2h97.6c44.8 0 83.2 36.8 83.2 83.2v97.6c0 46.4-38.4 83.2-83.2 83.2zM572.8 19.2c0-6.4-6.4-12.8-12.8-12.8h-97.6c-6.4 0-12.8 6.4-12.8 12.8v97.6c0 6.4 6.4 12.8 12.8 12.8h97.6c6.4 0 12.8-6.4 12.8-12.8v-97.6zM560 958.4h-97.6c-44.8 0-83.2-36.8-83.2-83.2v-97.6c0-44.8 36.8-83.2 83.2-83.2h97.6c44.8 0 83.2 36.8 83.2 83.2v99.2c0 44.8-38.4 81.6-83.2 81.6zM572.8 779.2c0-6.4-6.4-12.8-12.8-12.8h-97.6c-6.4 0-12.8 6.4-12.8 12.8v97.6c0 6.4 6.4 12.8 12.8 12.8h97.6c6.4 0 12.8-6.4 12.8-12.8v-97.6zM560 579.2h-97.6c-44.8 0-83.2-36.8-83.2-83.2v-97.6c0-44.8 36.8-83.2 83.2-83.2h97.6c44.8 0 83.2 36.8 83.2 83.2v97.6c0 46.4-38.4 83.2-83.2 83.2zM572.8 398.4c0-6.4-6.4-12.8-12.8-12.8h-97.6c-6.4 0-12.8 6.4-12.8 12.8v97.6c0 6.4 6.4 12.8 12.8 12.8h97.6c6.4 0 12.8-6.4 12.8-12.8v-97.6z" />
<glyph unicode="&#xe953;" glyph-name="redo" d="M732.8 582.4h256c19.2 0 35.2 16 35.2 35.2v256c0 19.2-16 35.2-35.2 35.2s-35.2-16-35.2-35.2v-158.4l-33.6 36.8c-100.8 99.2-238.4 156.8-380.8 156.8-296 0-537.6-241.6-537.6-537.6 0-96 25.6-188.8 75.2-272 22.4-36.8 49.6-73.6 80-104 12.8-12.8 35.2-12.8 49.6 0 6.4 6.4 9.6 16 9.6 24 0 9.6-3.2 17.6-9.6 24-73.6 73.6-121.6 172.8-132.8 276.8-1.6 16-3.2 33.6-3.2 49.6 0 257.6 209.6 468.8 468.8 468.8 131.2 0 257.6-56 345.6-152l32-35.2h-184c-19.2 0-35.2-16-35.2-35.2 1.6-17.6 16-33.6 35.2-33.6z" />
<glyph unicode="&#xe954;" glyph-name="undo" d="M292.8 582.4h-256c-19.2 0-35.2 16-35.2 35.2v256c0 19.2 16 35.2 35.2 35.2s35.2-16 35.2-35.2v-158.4l35.2 36.8c100.8 99.2 238.4 156.8 380.8 156.8 294.4 0 536-241.6 536-537.6 0-96-25.6-188.8-75.2-272-22.4-36.8-49.6-73.6-80-104-12.8-12.8-35.2-12.8-49.6 0-6.4 6.4-9.6 16-9.6 24 0 9.6 3.2 17.6 9.6 24 73.6 73.6 121.6 172.8 132.8 276.8 1.6 16 3.2 33.6 3.2 49.6 0 257.6-209.6 468.8-468.8 468.8-131.2 0-257.6-56-345.6-152l-32-35.2h184c19.2 0 35.2-16 35.2-35.2 0-17.6-16-33.6-35.2-33.6z" />
<glyph unicode="&#xe955;" glyph-name="compress" d="M588.8 528v0c1.6-1.6 1.6-3.2 3.2-4.8 6.4-6.4 16-9.6 24-9.6h368c19.2 0 35.2 16 35.2 35.2s-16 35.2-35.2 35.2h-284.8l3.2 3.2 312 304c14.4 12.8 14.4 35.2 0 49.6-6.4 6.4-14.4 9.6-24 9.6v0c-9.6 0-17.6-3.2-24-9.6l-316.8-310.4v280c0 19.2-16 35.2-35.2 35.2s-35.2-16-35.2-35.2v-360c1.6-8 3.2-14.4 9.6-22.4zM11.2 4.8c-14.4-12.8-14.4-35.2 0-49.6 6.4-6.4 16-9.6 24-11.2 9.6 0 17.6 3.2 24 9.6l316.8 310.4v-278.4c0-19.2 16-35.2 35.2-35.2s35.2 16 35.2 35.2v361.6c0 6.4-3.2 14.4-8 20.8-1.6 1.6-3.2 3.2-3.2 4.8-6.4 6.4-16 9.6-24 9.6h-368c-19.2 0-35.2-16-35.2-35.2s16-35.2 35.2-35.2h283.2l-3.2-3.2-312-304z" />
<glyph unicode="&#xe956;" glyph-name="expand" d="M1016 936v0c-1.6 1.6-1.6 3.2-3.2 4.8-6.4 6.4-16 9.6-24 9.6h-368c-19.2 0-35.2-16-35.2-35.2s16-35.2 35.2-35.2h283.2l-3.2-3.2-310.4-304c-14.4-12.8-14.4-35.2 0-49.6 6.4-6.4 14.4-9.6 24-9.6v0c9.6 0 17.6 3.2 24 9.6l316.8 310.4v-278.4c0-19.2 16-35.2 35.2-35.2s35.2 16 35.2 35.2v360c-1.6 6.4-3.2 12.8-9.6 20.8zM433.6 323.2c14.4 12.8 14.4 35.2 0 49.6-6.4 6.4-16 9.6-24 11.2-9.6 0-17.6-3.2-24-9.6l-316.8-312v278.4c0 19.2-16 35.2-35.2 35.2s-33.6-16-33.6-35.2v-360c0-6.4 3.2-14.4 8-20.8 1.6-1.6 3.2-3.2 3.2-4.8 6.4-6.4 16-9.6 24-9.6h368c19.2 0 35.2 16 35.2 35.2s-16 35.2-35.2 35.2h-283.2l3.2 3.2 310.4 304z" />
<glyph unicode="&#xe957;" glyph-name="next" d="M593.6 17.6v0c9.6 0 17.6 3.2 24 9.6v0l396.8 396.8c4.8 4.8 8 11.2 8 20.8 0 1.6 0 3.2 1.6 4.8 0 1.6 0 3.2 0 4.8-1.6 9.6-3.2 16-8 20.8l-398.4 396.8c-12.8 12.8-35.2 12.8-49.6 0-12.8-12.8-12.8-35.2 0-49.6l337.6-337.6h-868.8c-19.2 0-35.2-16-35.2-35.2s16-35.2 35.2-35.2h870.4l-337.6-337.6c-6.4-6.4-9.6-16-9.6-24 0-9.6 3.2-17.6 9.6-24 6.4-8 14.4-11.2 24-11.2z" />
<glyph unicode="&#xe958;" glyph-name="back" d="M432 881.6v0c-9.6 0-17.6-3.2-24-9.6v0l-396.8-396.8c-4.8-4.8-8-11.2-8-20.8 0-1.6 0-3.2-1.6-4.8 0-1.6 0-3.2 0-4.8 1.6-9.6 3.2-16 8-20.8l396.8-396.8c12.8-12.8 35.2-12.8 49.6 0 12.8 12.8 12.8 35.2 0 49.6l-337.6 337.6h870.4c19.2 0 35.2 16 35.2 35.2s-16 35.2-35.2 35.2h-870.4l337.6 337.6c6.4 6.4 9.6 16 9.6 24 0 9.6-3.2 17.6-9.6 24-6.4 8-14.4 11.2-24 11.2z" />
<glyph unicode="&#xe959;" glyph-name="sort" d="M1014.4 617.6l-212.8 214.4c-12.8 12.8-35.2 12.8-48 0l-214.4-212.8c-12.8-12.8-12.8-35.2 0-48s35.2-12.8 48 0l155.2 153.6v-628.8c0-19.2 16-35.2 35.2-35.2s35.2 16 35.2 35.2v628.8l153.6-155.2c12.8-12.8 35.2-12.8 48 0 6.4 6.4 9.6 14.4 9.6 24s-3.2 17.6-9.6 24zM435.2 332.8l-155.2-155.2v628.8c0 19.2-16 35.2-35.2 35.2s-35.2-16-35.2-35.2v-628.8l-153.6 155.2c-6.4 6.4-16 9.6-24 9.6-9.6 0-17.6-3.2-24-9.6-12.8-12.8-12.8-35.2 0-48l212.8-212.8c12.8-12.8 35.2-12.8 48 0l212.8 212.8c12.8 12.8 12.8 35.2 0 48-9.6 12.8-33.6 12.8-46.4 0z" />
<glyph unicode="&#xe95a;" glyph-name="multiple-select" d="M800 300.8l-283.2-283.2-283.2 283.2c-6.4 6.4-14.4 9.6-24 9.6s-17.6-3.2-24-9.6c-6.4-6.4-9.6-14.4-9.6-24s3.2-17.6 9.6-24l305.6-305.6c6.4-6.4 12.8-9.6 22.4-9.6h6.4c8 0 16 3.2 22.4 9.6l305.6 305.6c12.8 12.8 12.8 33.6 0 48-12.8 12.8-35.2 12.8-48 0zM233.6 595.2l283.2 283.2 283.2-283.2c12.8-12.8 35.2-12.8 48 0s12.8 33.6 0 48l-307.2 305.6c-6.4 6.4-14.4 11.2-24 9.6-9.6 0-19.2-3.2-25.6-9.6l-305.6-307.2c-6.4-6.4-9.6-14.4-9.6-24s3.2-17.6 9.6-24c12.8-11.2 35.2-11.2 48 1.6z" />
<glyph unicode="&#xe95b;" glyph-name="logout" d="M1024 747.2c0 62.4-51.2 113.6-113.6 113.6h-347.2c-19.2 0-33.6-16-33.6-33.6 0-19.2 16-33.6 33.6-33.6h347.2c25.6 0 44.8-20.8 44.8-44.8v-694.4c0-25.6-20.8-44.8-44.8-44.8h-694.4c-25.6 0-44.8 20.8-44.8 44.8v347.2c0 19.2-16 33.6-33.6 33.6-19.2 0-33.6-16-33.6-33.6v-348.8c0-62.4 51.2-113.6 113.6-113.6h694.4c62.4 0 113.6 51.2 113.6 113.6v694.4zM409.6 556.8c9.6 12.8 8 32-4.8 43.2l-288 288h188.8c19.2 0 33.6 16 33.6 33.6 0 14.4-8 27.2-20.8 32-3.2 1.6-8 3.2-12.8 3.2h-276.8c-16 0-28.8-12.8-28.8-27.2v-278.4c0-6.4 1.6-11.2 4.8-16 6.4-9.6 17.6-16 28.8-16 19.2 0 33.6 16 33.6 33.6v185.6l288-288c12.8-12.8 35.2-12.8 48 0 0 0 0 0 0 0s0 0 0 0c4.8 3.2 4.8 4.8 6.4 6.4z" />
<glyph unicode="&#xe95c;" glyph-name="last-login" d="M923.2-22.4l1.6 3.2v937.6c0 1.6 0 1.6 0 3.2v8c-1.6 17.6-16 32-35.2 32h-747.2c-19.2 0-35.2-16-35.2-35.2 0-8 1.6-228.8 1.6-228.8 0-19.2 16-35.2 35.2-35.2s35.2 16 35.2 35.2v193.6h675.2v-884.8h-675.2v156.8c0 19.2-16 35.2-35.2 35.2s-35.2-16-35.2-35.2v-192c0-9.6 3.2-17.6 9.6-24s16-9.6 24-9.6h745.6c19.2 0 33.6 14.4 35.2 33.6 0 1.6 0 1.6 0 3.2v3.2zM579.2 414.4l-201.6-201.6c-6.4-6.4-9.6-16-9.6-24 0-9.6 3.2-17.6 9.6-24s16-9.6 24-9.6v0c9.6 0 19.2 3.2 24 9.6l262.4 259.2c4.8 4.8 8 11.2 9.6 20.8 0 1.6 0 3.2 0 4.8s0 3.2 0 4.8c-1.6 9.6-3.2 16-9.6 20.8l-260.8 260.8c-6.4 6.4-14.4 9.6-24 9.6v0c-9.6 0-19.2-3.2-24-9.6-6.4-6.4-9.6-16-9.6-24 0-9.6 3.2-17.6 9.6-24l201.6-201.6h-448c-19.2 0-35.2-16-35.2-35.2s16-35.2 35.2-35.2h446.4z" />
<glyph unicode="&#xe95d;" glyph-name="import" d="M203.2 587.2c9.6 0 19.2 3.2 24 9.6l248 246.4v-539.2c0-19.2 16-33.6 33.6-33.6 19.2 0 33.6 16 33.6 33.6v539.2l246.4-246.4c6.4-6.4 14.4-9.6 24-9.6 0 0 0 0 0 0 9.6 0 19.2 3.2 24 9.6 6.4 6.4 9.6 14.4 9.6 24s-3.2 17.6-9.6 24l-304 304c-4.8 8-12.8 11.2-22.4 11.2-11.2 0-19.2-3.2-25.6-9.6l-304-304c-6.4-6.4-9.6-14.4-9.6-24s3.2-17.6 9.6-24c4.8-8 12.8-11.2 22.4-11.2zM904 228.8c-19.2 0-33.6-16-33.6-33.6v-188.8h-721.6v188.8c0 19.2-16 33.6-33.6 33.6s-35.2-16-35.2-33.6v-224c0-19.2 16-35.2 35.2-35.2h790.4c19.2 0 33.6 16 33.6 33.6v224c0 19.2-16 35.2-35.2 35.2z" />
<glyph unicode="&#xe95e;" glyph-name="forward" d="M619.2 59.2c6.4-3.2 22.4-6.4 36.8 8l355.2 355.2c8 8 11.2 16 11.2 27.2 0 8-4.8 16-9.6 22.4l-356.8 355.2c-14.4 14.4-30.4 9.6-36.8 8-12.8-6.4-22.4-17.6-22.4-32v-176h-52.8c-137.6 0-384 25.6-478.4 193.6-6.4 11.2-19.2 16-30.4 16-20.8 0-33.6-17.6-33.6-33.6 0-8 1.6-216 155.2-369.6 104-104 248-160 428.8-168h11.2v-172.8c0-14.4 9.6-27.2 22.4-33.6zM100.8 649.6l-12.8 36.8 32-22.4c136-94.4 324.8-107.2 425.6-107.2 46.4 0 75.2 3.2 86.4 4.8 3.2 0 4.8 0 4.8 0 16 1.6 32 17.6 32 33.6v124.8l270.4-272-270.4-272v124.8c0 17.6-17.6 33.6-36.8 33.6-344-1.6-478.4 171.2-531.2 315.2z" />
<glyph unicode="&#xe95f;" glyph-name="a-z" d="M1012.8 590.4l-142.4 336c-8 19.2-24 28.8-43.2 28.8h-4.8c-19.2 0-35.2-11.2-43.2-30.4l-142.4-336c-3.2-6.4-3.2-11.2-3.2-16 0-20.8 16-36.8 36.8-36.8 16 0 28.8 8 33.6 22.4l33.6 80h174.4l33.6-80c6.4-14.4 19.2-22.4 33.6-22.4 20.8 0 36.8 16 36.8 36.8 0 6.4 0 11.2-3.2 17.6zM766.4 708.8l1.6 3.2 57.6 137.6 59.2-140.8h-118.4zM422.4 169.6v0c-12.8 12.8-33.6 12.8-44.8 0l-123.2-123.2v876.8c0 19.2-16 33.6-33.6 33.6-19.2 0-33.6-16-33.6-33.6v-876.8l-123.2 123.2c-12.8 12.8-32 12.8-44.8 0 0 0 0 0 0 0v0c-4.8-4.8-8-12.8-8-19.2 0-9.6 3.2-17.6 9.6-24l177.6-177.6c6.4-6.4 14.4-9.6 24-9.6s17.6 3.2 24 9.6l177.6 177.6c6.4 6.4 9.6 14.4 9.6 24v0c-1.6 6.4-4.8 12.8-11.2 19.2 0 0 0 0 0 0zM953.6 6.4h-195.2l214.4 265.6c8 8 12.8 19.2 12.8 30.4 0 25.6-19.2 46.4-44.8 46.4h-243.2c-19.2 0-35.2-16-35.2-35.2s16-35.2 35.2-35.2h192l-3.2-3.2-216-267.2c-6.4-8-9.6-17.6-9.6-27.2 0-24 19.2-43.2 43.2-43.2h248c19.2 0 35.2 16 35.2 35.2 1.6 17.6-14.4 33.6-33.6 33.6z" />
<glyph unicode="&#xe960;" glyph-name="z-a" d="M1012.8-6.4l-142.4 336c-8 19.2-24 28.8-43.2 28.8h-4.8c-19.2 0-35.2-11.2-43.2-30.4l-142.4-336c-3.2-6.4-3.2-11.2-3.2-16 0-20.8 16-36.8 36.8-36.8 16 0 28.8 8 33.6 22.4l33.6 80h174.4l33.6-80c6.4-14.4 19.2-22.4 33.6-22.4 20.8 0 36.8 16 36.8 36.8 0 6.4 0 12.8-3.2 17.6zM766.4 113.6l1.6 3.2 57.6 137.6 59.2-140.8h-118.4zM422.4 169.6v0c-12.8 12.8-33.6 12.8-44.8 0l-123.2-123.2v876.8c0 19.2-16 33.6-33.6 33.6-19.2 0-33.6-16-33.6-33.6v-876.8l-123.2 123.2c-12.8 12.8-32 12.8-44.8 0 0 0 0 0 0 0v0c-4.8-4.8-8-12.8-8-19.2 0-9.6 3.2-17.6 9.6-24l177.6-177.6c6.4-6.4 14.4-9.6 24-9.6s17.6 3.2 24 9.6l177.6 177.6c6.4 6.4 9.6 14.4 9.6 24v0c-1.6 6.4-4.8 12.8-11.2 19.2 0 0 0 0 0 0zM670.4 606.4c-6.4-8-9.6-17.6-9.6-27.2 0-24 19.2-43.2 43.2-43.2h248c19.2 0 35.2 16 35.2 35.2s-16 35.2-35.2 35.2h-193.6l214.4 265.6c8 8 12.8 19.2 12.8 30.4 0 25.6-19.2 46.4-44.8 46.4h-243.2c-19.2 0-35.2-16-35.2-35.2s16-35.2 35.2-35.2h192l-3.2-3.2-216-268.8z" />
<glyph unicode="&#xe961;" glyph-name="registered" d="M345.6 420.8h328c9.6 0 19.2 4.8 25.6 11.2 6.4 8 9.6 17.6 8 27.2-9.6 52.8-40 100.8-83.2 131.2l-6.4 4.8 4.8 6.4c12.8 20.8 19.2 44.8 19.2 68.8 0 72-59.2 131.2-131.2 131.2s-131.2-59.2-131.2-131.2c0-24 6.4-48 19.2-68.8l4.8-6.4-6.4-4.8c-46.4-30.4-76.8-78.4-84.8-131.2-1.6-9.6 1.6-19.2 8-27.2 6.4-6.4 16-11.2 25.6-11.2zM398.4 500.8c16 25.6 41.6 44.8 70.4 54.4 12.8 3.2 20.8 14.4 22.4 27.2s-4.8 25.6-16 32c-19.2 11.2-32 33.6-32 56 0 35.2 28.8 65.6 65.6 65.6 35.2 0 65.6-28.8 65.6-65.6 0-22.4-11.2-43.2-32-56-11.2-6.4-17.6-19.2-16-32s11.2-24 22.4-27.2c28.8-9.6 54.4-28.8 70.4-54.4l8-12.8h-236.8l8 12.8zM673.6 326.4h-328c-19.2 0-35.2-16-35.2-35.2s16-35.2 35.2-35.2h328c19.2 0 35.2 16 35.2 35.2s-16 35.2-35.2 35.2zM508.8 161.6h-163.2c-19.2 0-35.2-16-35.2-35.2s16-35.2 35.2-35.2h163.2c19.2 0 35.2 16 35.2 35.2s-16 35.2-35.2 35.2zM804.8 960h-590.4c-56 0-100.8-44.8-100.8-100.8v-824c0-56 44.8-100.8 100.8-100.8h590.4c56 0 100.8 44.8 100.8 100.8v824c0 56-46.4 100.8-100.8 100.8zM836.8 35.2c0-17.6-14.4-33.6-33.6-33.6h-588.8c-17.6 0-33.6 14.4-33.6 33.6v824c0 17.6 14.4 33.6 33.6 33.6h590.4c17.6 0 33.6-14.4 33.6-33.6v-824z" />
<glyph unicode="&#xe962;" glyph-name="agents" d="M512 960c-283.2 0-512-230.4-512-512s230.4-512 512-512 512 230.4 512 512c0 281.6-230.4 512-512 512zM219.2 116.8c33.6 91.2 107.2 161.6 198.4 192 14.4 4.8 24 16 25.6 30.4s-4.8 28.8-17.6 36.8c-52.8 32-83.2 86.4-83.2 147.2 0 94.4 76.8 171.2 171.2 171.2s171.2-76.8 171.2-171.2c0-60.8-30.4-115.2-83.2-147.2-12.8-8-19.2-22.4-17.6-36.8s11.2-27.2 25.6-30.4c91.2-28.8 164.8-99.2 198.4-190.4-78.4-70.4-180.8-112-294.4-112-113.6-1.6-216 40-294.4 110.4zM860.8 176c-36.8 75.2-96 137.6-168 176l-1.6 1.6 1.6 1.6c41.6 46.4 65.6 104 65.6 166.4 0 134.4-110.4 244.8-244.8 244.8s-246.4-110.4-246.4-244.8c0-62.4 22.4-121.6 65.6-166.4l1.6-1.6-3.2-1.6c-73.6-38.4-132.8-100.8-168-177.6-59.2 75.2-94.4 171.2-94.4 273.6 0 244.8 198.4 443.2 443.2 443.2s441.6-198.4 441.6-443.2c0-102.4-33.6-196.8-92.8-272z" />
<glyph unicode="&#xe963;" glyph-name="emoticons" d="M654.4 588.8c36.8 0 65.6 28.8 65.6 65.6s-28.8 65.6-65.6 65.6c-36.8 0-65.6-28.8-65.6-65.6 1.6-36.8 30.4-65.6 65.6-65.6zM371.2 588.8c36.8 0 65.6 28.8 65.6 65.6s-28.8 65.6-65.6 65.6-65.6-28.8-65.6-65.6c0-36.8 28.8-65.6 65.6-65.6zM792 392c-4.8 8-12.8 14.4-22.4 17.6s-19.2 1.6-27.2-3.2c-8-4.8-14.4-12.8-17.6-20.8-1.6-6.4-46.4-139.2-212.8-139.2s-211.2 134.4-212.8 139.2c-3.2 9.6-9.6 17.6-17.6 22.4-4.8 3.2-11.2 4.8-17.6 4.8-3.2 0-6.4 0-11.2-1.6-9.6-3.2-17.6-9.6-22.4-17.6s-6.4-19.2-3.2-28.8c1.6-8 60.8-190.4 281.6-190.4s280 184 281.6 192c8 6.4 6.4 16 1.6 25.6v0zM513.6 956.8c-281.6 0-512-230.4-512-512s230.4-512 512-512 512 230.4 512 512c0 283.2-230.4 512-512 512zM513.6 3.2c-244.8 0-443.2 198.4-443.2 443.2s198.4 443.2 443.2 443.2 443.2-198.4 443.2-443.2c-1.6-244.8-200-443.2-443.2-443.2z" />
<glyph unicode="&#xe964;" glyph-name="transaction" d="M513.6 958.4c-281.6 0-512-230.4-512-512s230.4-512 512-512 512 230.4 512 512c0 283.2-228.8 512-512 512zM513.6 3.2c-244.8 0-443.2 198.4-443.2 443.2s198.4 443.2 443.2 443.2 443.2-198.4 443.2-443.2c0-243.2-198.4-443.2-443.2-443.2zM550.4 476.8v139.2c25.6-1.6 49.6-8 73.6-16 4.8-1.6 9.6-3.2 14.4-3.2 22.4 0 35.2 17.6 35.2 35.2 0 16-8 28.8-24 33.6-30.4 11.2-64 17.6-97.6 20.8v32c0 19.2-16 33.6-33.6 33.6 0 0 0 0 0 0s0 0 0 0c-1.6 0-3.2 0-4.8 0-16-3.2-28.8-16-28.8-33.6v-32c-104-12.8-140.8-81.6-140.8-137.6 0-80 67.2-112 140.8-131.2v-132.8c-43.2 3.2-75.2 14.4-94.4 24-4.8 1.6-9.6 3.2-14.4 3.2-6.4 0-14.4-1.6-20.8-6.4-9.6-6.4-16-17.6-16-28.8 0-14.4 9.6-27.2 22.4-33.6 38.4-16 78.4-27.2 121.6-30.4v-36.8c0-19.2 16-33.6 33.6-33.6s33.6 16 33.6 33.6v33.6c84.8 11.2 140.8 62.4 140.8 132.8-1.6 86.4-67.2 115.2-140.8 134.4zM481.6 494.4c-38.4 11.2-64 25.6-64 57.6 0 30.4 22.4 51.2 64 60.8v-118.4zM550.4 283.2v113.6c33.6-9.6 64-24 64-51.2 0-33.6-20.8-54.4-64-62.4z" />
<glyph unicode="&#xe965;" glyph-name="fish-pond" d="M512 956.8h-6.4c-281.6-3.2-507.2-235.2-504-516.8 4.8-276.8 233.6-502.4 510.4-502.4h6.4c136 1.6 264 56 358.4 153.6s145.6 225.6 144 361.6c-3.2 278.4-232 504-508.8 504zM315.2 844.8c59.2 28.8 123.2 44.8 190.4 46.4 1.6 0 1.6 0 3.2 0 70.4 0 139.2-16 200-46.4l8-3.2-68.8-113.6-6.4 3.2c-80 36.8-177.6 36.8-257.6 0l-6.4-3.2-68.8 113.6 6.4 3.2zM230.4 318.4l3.2-6.4-113.6-68.8-3.2 8c-28.8 59.2-44.8 123.2-46.4 190.4-1.6 70.4 14.4 139.2 44.8 201.6l3.2 8 113.6-68.8-1.6-6.4c-19.2-40-28.8-84.8-28.8-129.6 0-43.2 9.6-88 28.8-128zM707.2 51.2c-59.2-28.8-123.2-44.8-190.4-46.4h-6.4c-67.2 0-136 16-196.8 46.4l-8 3.2 68.8 113.6 6.4-3.2c83.2-36.8 179.2-36.8 260.8 0l6.4 3.2 68.8-113.6-9.6-3.2zM512 204.8c-134.4 0-243.2 108.8-243.2 243.2s108.8 243.2 243.2 243.2c134.4 0 243.2-108.8 243.2-243.2s-108.8-243.2-243.2-243.2zM908.8 643.2c28.8-59.2 44.8-123.2 46.4-190.4 1.6-70.4-14.4-139.2-46.4-201.6l-3.2-8-113.6 68.8 3.2 6.4c19.2 40 28.8 84.8 28.8 129.6s-9.6 88-28.8 129.6l-3.2 6.4 113.6 68.8 3.2-9.6z" />
<glyph unicode="&#xe966;" glyph-name="pages" d="M510.4 587.2c-76.8 0-139.2-62.4-139.2-139.2s62.4-139.2 139.2-139.2c76.8 0 139.2 62.4 139.2 139.2s-62.4 139.2-139.2 139.2zM510.4 374.4c-40 0-73.6 33.6-73.6 73.6s33.6 73.6 73.6 73.6c40 0 73.6-33.6 73.6-73.6s-33.6-73.6-73.6-73.6zM870.4 809.6c-96 96-224 148.8-360 148.8s-264-52.8-361.6-148.8c-96-96-148.8-224-148.8-361.6 0-136 52.8-264 148.8-360s224-148.8 361.6-148.8c136 0 264 52.8 360 148.8s148.8 224 148.8 360c1.6 136-52.8 264-148.8 361.6zM510.4 8c-243.2 0-440 196.8-440 440s196.8 440 440 440c241.6 0 440-196.8 440-440s-198.4-440-440-440zM739.2 678.4c-60.8 60.8-142.4 94.4-230.4 94.4-86.4 0-168-33.6-230.4-94.4-60.8-60.8-94.4-142.4-94.4-230.4 0-86.4 33.6-168 94.4-230.4 60.8-60.8 142.4-94.4 230.4-94.4 86.4 0 168 33.6 230.4 94.4 60.8 60.8 94.4 142.4 94.4 230.4 1.6 86.4-32 168-94.4 230.4zM510.4 193.6c-140.8 0-254.4 113.6-254.4 254.4s113.6 254.4 254.4 254.4c140.8 0 254.4-113.6 254.4-254.4s-115.2-254.4-254.4-254.4z" />
<glyph unicode="&#xe967;" glyph-name="activity-2" d="M500.8 958.4c-275.2-6.4-500.8-236.8-500.8-512s224-505.6 499.2-512c1.6 0 3.2 0 4.8 0 4.8 0 9.6 0 12.8 0s4.8 0 6.4 0c275.2 6.4 499.2 236.8 499.2 512s-224 505.6-499.2 512h-6.4c-1.6 0-3.2 0-6.4 0-1.6 0-4.8 0-6.4 0h-3.2zM136 680c49.6 80 121.6 140.8 208 177.6l43.2 17.6-20.8-43.2c-22.4-44.8-40-100.8-51.2-164.8l-3.2-14.4h-193.6l17.6 27.2zM371.2 585.6h284.8l1.6-16c4.8-41.6 6.4-81.6 6.4-121.6 0-41.6-1.6-81.6-6.4-121.6v-6.4l-1.6-9.6h-284.8l-1.6 16c-4.8 41.6-6.4 81.6-6.4 121.6 0 41.6 1.6 81.6 6.4 121.6l1.6 16zM86.4 321.6c-12.8 41.6-17.6 83.2-17.6 124.8s6.4 84.8 17.6 124.8l3.2 12.8h211.2l-1.6-19.2c-3.2-38.4-6.4-78.4-6.4-118.4s1.6-80 6.4-118.4l1.6-19.2h-209.6l-4.8 12.8zM344 36.8c-86.4 35.2-158.4 97.6-208 177.6l-17.6 25.6h193.6l3.2-14.4c12.8-64 30.4-120 51.2-164.8l20.8-43.2-43.2 19.2zM534.4 9.6c-4.8-3.2-9.6-3.2-14.4-4.8-1.6 0-3.2-1.6-6.4-1.6h-3.2l-4.8 1.6c-3.2 0-8 1.6-12.8 4.8-32 16-78.4 80-105.6 208l-6.4 22.4h264l-4.8-20.8c-28.8-128-73.6-192-105.6-209.6zM889.6 212.8c-49.6-78.4-123.2-142.4-208-177.6l-43.2-17.6 20.8 43.2c22.4 44.8 38.4 100.8 51.2 164.8l3.2 14.4h193.6l-17.6-27.2zM939.2 572.8c12.8-41.6 17.6-83.2 17.6-124.8s-6.4-84.8-17.6-124.8l-3.2-12.8h-212.8l1.6 19.2c3.2 38.4 4.8 78.4 4.8 118.4s-1.6 78.4-4.8 118.4l-1.6 19.2h211.2l4.8-12.8zM681.6 857.6c86.4-35.2 158.4-97.6 208-177.6l17.6-27.2h-193.6l-3.2 14.4c-12.8 64-30.4 120-51.2 164.8l-20.8 43.2 43.2-17.6zM513.6 889.6l6.4-1.6c3.2 0 8-1.6 12.8-4.8 33.6-17.6 78.4-80 105.6-208l4.8-22.4h-264l4.8 22.4c28.8 128 73.6 192 105.6 208 4.8 3.2 9.6 3.2 14.4 4.8 1.6 0 4.8 1.6 6.4 1.6h3.2z" />
<glyph unicode="&#xe968;" glyph-name="add-lead" d="M784 484.8h-233.6v233.6c0 20.8-17.6 36.8-36.8 36.8-20.8 0-36.8-17.6-36.8-36.8v-233.6h-236.8c-20.8 0-36.8-17.6-36.8-36.8 0-20.8 17.6-36.8 36.8-36.8h233.6v-235.2c0-20.8 17.6-36.8 36.8-36.8 20.8 0 36.8 17.6 36.8 36.8v233.6h236.8c20.8 0 36.8 17.6 36.8 36.8 0 22.4-16 38.4-36.8 38.4zM512 960c-281.6 0-512-230.4-512-512s230.4-512 512-512 512 230.4 512 512c0 281.6-228.8 512-512 512zM512 4.8c-244.8 0-443.2 198.4-443.2 443.2 0 243.2 198.4 443.2 443.2 443.2s443.2-200 443.2-443.2c0-244.8-198.4-443.2-443.2-443.2z" />
<glyph unicode="&#xe969;" glyph-name="active" d="M510.4 961.6c-281.6 0-512-230.4-512-512s230.4-512 512-512 512 230.4 512 512c0 281.6-228.8 512-512 512zM510.4 6.4c-244.8 0-443.2 198.4-443.2 443.2s198.4 443.2 443.2 443.2 443.2-198.4 443.2-443.2c0-244.8-198.4-443.2-443.2-443.2zM769.6 660.8c-9.6 0-19.2-3.2-25.6-11.2l-324.8-326.4-140.8 136c-6.4 6.4-16 9.6-25.6 9.6 0 0 0 0 0 0-9.6 0-17.6-4.8-25.6-11.2-6.4-6.4-9.6-16-9.6-25.6s4.8-19.2 11.2-25.6l166.4-160c14.4-12.8 36.8-12.8 51.2 0l350.4 352c6.4 6.4 11.2 16 11.2 25.6s-3.2 19.2-11.2 25.6c-8 8-17.6 11.2-27.2 11.2z" />
<glyph unicode="&#xe96a;" glyph-name="remove" d="M512 961.6c-281.6 0-512-230.4-512-512s230.4-512 512-512 512 230.4 512 512c0 281.6-228.8 512-512 512zM512 6.4c-244.8 0-443.2 198.4-443.2 443.2 1.6 243.2 200 441.6 443.2 441.6s443.2-198.4 443.2-443.2c0-243.2-198.4-441.6-443.2-441.6zM764.8 483.2h-504c-19.2 0-35.2-16-35.2-35.2s16-35.2 35.2-35.2h504c19.2 0 35.2 16 35.2 35.2s-16 35.2-35.2 35.2z" />
<glyph unicode="&#xe96b;" glyph-name="settings" d="M513.6 657.6c-115.2 0-209.6-94.4-209.6-209.6s94.4-209.6 209.6-209.6c115.2 0 209.6 94.4 209.6 209.6s-94.4 209.6-209.6 209.6zM513.6 308.8c-76.8 0-139.2 62.4-139.2 139.2s62.4 139.2 139.2 139.2c76.8 0 139.2-62.4 139.2-139.2s-62.4-139.2-139.2-139.2zM937.6 558.4h-30.4v1.6c-8 30.4-20.8 60.8-36.8 88v1.6l20.8 20.8c16 16 25.6 36.8 25.6 60.8 0 22.4-9.6 44.8-25.6 60.8l-35.2 35.2c-16 16-36.8 24-60.8 24s-44.8-8-60.8-24l-20.8-20.8h-1.6c-27.2 16-57.6 27.2-88 36.8h-1.6v28.8c0 46.4-38.4 84.8-84.8 84.8h-49.6c-46.4 0-84.8-38.4-84.8-84.8v-30.4h-1.6c-30.4-8-60.8-20.8-88-36.8h-1.6l-20.8 20.8c-16 16-36.8 24-60.8 24v0c-22.4 0-44.8-9.6-60.8-24l-35.2-35.2c-33.6-33.6-33.6-88 0-120l20.8-20.8v-1.6c-16-27.2-28.8-57.6-36.8-88v-1.6h-30.4c-46.4 0-84.8-38.4-84.8-84.8v-49.6c0-46.4 38.4-84.8 84.8-84.8h30.4v-1.6c8-30.4 20.8-60.8 36.8-88v-1.6l-20.8-20.8c-33.6-33.6-33.6-88 0-120l35.2-35.2c33.6-33.6 88-33.6 120 0l20.8 20.8h1.6c27.2-16 57.6-27.2 88-36.8h1.6v-30.4c0-46.4 38.4-84.8 84.8-84.8h49.6c46.4 0 84.8 38.4 84.8 84.8v30.4h1.6c30.4 8 60.8 20.8 88 36.8h1.6l20.8-20.8c33.6-33.6 88-33.6 120 0l35.2 35.2c16 16 25.6 36.8 25.6 60.8 0 22.4-9.6 44.8-25.6 60.8l-20.8 20.8v1.6c16 27.2 27.2 57.6 36.8 88v1.6h30.4c46.4 0 84.8 38.4 84.8 84.8v49.6c3.2 44.8-35.2 83.2-81.6 83.2zM952 422.4c0-8-6.4-14.4-14.4-14.4h-57.6c-16 0-32-11.2-35.2-28.8-8-43.2-25.6-83.2-49.6-118.4-9.6-14.4-8-32 4.8-44.8l40-40c6.4-6.4 6.4-14.4 0-20.8l-35.2-35.2c-3.2-3.2-6.4-4.8-9.6-4.8 0 0 0 0 0 0-3.2 0-8 1.6-9.6 4.8l-41.6 40c-11.2 11.2-30.4 14.4-44.8 4.8-36.8-24-76.8-41.6-118.4-49.6-16-3.2-28.8-17.6-28.8-35.2v-57.6c0-8-6.4-14.4-14.4-14.4h-49.6c-8 0-14.4 6.4-14.4 14.4v57.6c0 16-11.2 32-28.8 35.2-43.2 8-83.2 25.6-118.4 49.6-6.4 3.2-12.8 6.4-19.2 6.4-9.6 0-17.6-3.2-25.6-9.6l-40-40c-6.4-6.4-14.4-6.4-20.8 0l-35.2 35.2c-3.2 3.2-4.8 6.4-4.8 9.6s1.6 8 4.8 9.6l40 40c11.2 11.2 14.4 30.4 4.8 44.8-24 36.8-41.6 76.8-49.6 118.4-3.2 16-17.6 28.8-35.2 28.8h-57.6c-8 0-14.4 6.4-14.4 14.4v49.6c0 8 6.4 14.4 14.4 14.4h57.6c16 0 32 11.2 35.2 28.8 8 43.2 25.6 83.2 49.6 118.4 9.6 14.4 8 32-4.8 44.8l-40 41.6c-3.2 3.2-4.8 6.4-4.8 9.6s1.6 8 4.8 9.6l35.2 35.2c4.8 4.8 14.4 4.8 20.8 0l40-40c11.2-11.2 30.4-14.4 44.8-4.8 36.8 24 76.8 41.6 118.4 49.6 16 3.2 28.8 17.6 28.8 35.2v57.6c0 8 6.4 14.4 14.4 14.4h49.6c8 0 14.4-6.4 14.4-14.4v-57.6c0-16 11.2-32 28.8-35.2 41.6-8 83.2-25.6 118.4-49.6 14.4-9.6 32-8 44.8 4.8l40 40c3.2 3.2 6.4 4.8 9.6 4.8 0 0 0 0 0 0 3.2 0 8-1.6 9.6-4.8l35.2-35.2c6.4-6.4 6.4-14.4 0-20.8l-38.4-40c-11.2-11.2-14.4-30.4-4.8-44.8 24-36.8 41.6-76.8 49.6-118.4 3.2-16 17.6-28.8 35.2-28.8h57.6c8 0 14.4-6.4 14.4-14.4v-49.6z" />
<glyph unicode="&#xe96c;" glyph-name="history" d="M561.6 913.6c-256 0-464-208-464-462.4 0-9.6-1.6-54.4 8-108.8l6.4-32-57.6 33.6c-16 9.6-36.8 3.2-46.4-12.8-4.8-8-6.4-17.6-3.2-25.6 1.6-8 8-16 16-20.8l147.2-86.4c1.6 0 3.2-1.6 4.8-1.6l4.8-1.6c0 0 1.6 0 3.2 0h9.6c1.6 0 1.6 0 4.8 1.6l4.8 1.6c0 0 1.6 1.6 3.2 1.6l1.6 1.6c1.6 0 1.6 1.6 3.2 3.2 1.6 0 1.6 1.6 3.2 3.2 0 0 0 0 0 0l1.6 1.6 1.6 3.2 59.2 147.2c3.2 8 3.2 17.6 0 25.6s-9.6 14.4-19.2 17.6c-17.6 6.4-36.8-1.6-44.8-19.2l-30.4-75.2-8 51.2c-6.4 43.2-6.4 78.4-6.4 84.8 0 219.2 177.6 396.8 396.8 396.8s396.8-177.6 396.8-396.8c0-219.2-177.6-396.8-396.8-396.8-19.2 0-33.6-16-33.6-33.6 0-19.2 16-33.6 33.6-33.6 256 0 464 208 464 464 0 260.8-208 468.8-464 468.8zM203.2 204.8v0 0 0zM192 200v0 0 0zM561.6 382.4c3.2 0 6.4 1.6 11.2 3.2l1.6 1.6c1.6 1.6 3.2 1.6 4.8 3.2v0l206.4 206.4c6.4 6.4 9.6 14.4 9.6 24s-3.2 17.6-9.6 24c-6.4 6.4-14.4 9.6-24 9.6s-17.6-3.2-24-9.6l-184-187.2-166.4 70.4c-8 3.2-17.6 3.2-25.6 0s-14.4-9.6-17.6-17.6c-8-17.6 1.6-36.8 17.6-44.8l190.4-80 9.6-3.2z" />
<glyph unicode="&#xe96d;" glyph-name="help" d="M769.6 704c-9.6 9.6-24 12.8-36.8 6.4l-321.6-142.4c-8-3.2-12.8-9.6-16-17.6l-142.4-321.6c-4.8-12.8-3.2-27.2 6.4-36.8 6.4-6.4 14.4-9.6 24-9.6 4.8 0 9.6 1.6 12.8 3.2l321.6 142.4c8 3.2 12.8 9.6 16 16l142.4 321.6c4.8 12.8 3.2 28.8-6.4 38.4v0zM577.6 380.8l-232-100.8 104 235.2 232 100.8-104-235.2zM513.6 960c-281.6 0-512-230.4-512-512s230.4-512 512-512 512 230.4 512 512c0 281.6-230.4 512-512 512zM545.6 6.4v83.2c0 19.2-14.4 33.6-33.6 33.6s-33.6-14.4-33.6-33.6v-83.2c-216 16-388.8 188.8-406.4 404.8h83.2c19.2 0 33.6 14.4 33.6 33.6s-14.4 33.6-33.6 33.6h-83.2c16 219.2 190.4 393.6 409.6 409.6v-83.2c0-19.2 14.4-33.6 33.6-33.6s33.6 14.4 33.6 33.6v83.2c219.2-17.6 392-193.6 406.4-412.8h-84.8c-19.2 0-33.6-14.4-33.6-33.6s14.4-33.6 33.6-33.6h84.8c-19.2-214.4-193.6-387.2-409.6-401.6zM547.2 448c0-18.557-15.043-33.6-33.6-33.6s-33.6 15.043-33.6 33.6c0 18.557 15.043 33.6 33.6 33.6s33.6-15.043 33.6-33.6z" />
<glyph unicode="&#xe96e;" glyph-name="snooze" d="M139.2-59.2h742.4c17.6 0 32 14.4 32 32v129.6c0 12.8-8 24-19.2 28.8l-6.4 3.2v6.4c-12.8 126.4-89.6 238.4-203.2 297.6l-20.8 11.2 20.8 11.2c113.6 59.2 190.4 171.2 203.2 297.6v6.4l8 3.2c11.2 4.8 19.2 16 19.2 28.8v129.6c0 17.6-14.4 32-32 32h-744c-17.6 0-32-14.4-32-32v-129.6c0-12.8 8-24 19.2-28.8l6.4-3.2v-6.4c12.8-126.4 88-238.4 203.2-297.6l20.8-11.2-20.8-11.2c-113.6-59.2-188.8-169.6-203.2-297.6v-6.4l-6.4-3.2c-11.2-4.8-19.2-16-19.2-28.8v-129.6c0-19.2 14.4-32 32-32zM172.8 894.4h676.8v-64h-676.8v64zM200 750.4l-1.6 14.4h627.2l-1.6-14.4c-22.4-153.6-156.8-268.8-312-268.8s-289.6 115.2-312 268.8zM200 148.8c22.4 153.6 156.8 268.8 312 268.8s289.6-115.2 312-268.8l1.6-14.4h-627.2l1.6 14.4zM171.2 68.8h676.8v-64h-676.8v64z" />
<glyph unicode="&#xe96f;" glyph-name="sites" d="M923.2 158.4c56 0 100.8 44.8 100.8 100.8v588.8c0 56-44.8 100.8-100.8 100.8h-822.4c-54.4 0-100.8-44.8-100.8-100.8v-588.8c0-56 44.8-100.8 100.8-100.8h377.6v-144h-131.2c-19.2 0-33.6-14.4-33.6-33.6s14.4-33.6 33.6-33.6h329.6c19.2 0 33.6 14.4 33.6 33.6s-14.4 33.6-33.6 33.6h-131.2v144h377.6zM68.8 848c0 17.6 14.4 33.6 33.6 33.6h822.4c17.6 0 33.6-14.4 33.6-33.6v-388.8h-889.6v388.8zM100.8 227.2c-17.6 0-33.6 14.4-33.6 33.6v132.8h888v-132.8c0-17.6-14.4-33.6-33.6-33.6h-820.8z" />
<glyph unicode="&#xe970;" glyph-name="mobile" d="M808 958.4h-592c-52.8 0-97.6-43.2-97.6-97.6v-827.2c0-52.8 43.2-97.6 97.6-97.6h592c52.8 0 97.6 43.2 97.6 97.6v827.2c0 54.4-43.2 97.6-97.6 97.6zM844.8 33.6c0-20.8-17.6-36.8-36.8-36.8h-592c-20.8 0-36.8 17.6-36.8 36.8v142.4h667.2v-142.4zM844.8 244.8h-665.6v404.8h667.2v-404.8zM844.8 718.4h-665.6v142.4c0 20.8 17.6 36.8 36.8 36.8h592c20.8 0 36.8-17.6 36.8-36.8v-142.4z" />
<glyph unicode="&#xe971;" glyph-name="social" d="M465.6 635.2c0-26.51-21.49-48-48-48s-48 21.49-48 48c0 26.51 21.49 48 48 48s48-21.49 48-48zM252.8 635.2c0-26.51-21.49-48-48-48s-48 21.49-48 48c0 26.51 21.49 48 48 48s48-21.49 48-48zM923.2 838.4h-822.4c-54.4 0-100.8-46.4-100.8-100.8v-588.8c0-56 46.4-100.8 100.8-100.8h822.4c56 0 100.8 44.8 100.8 100.8v588.8c0 54.4-44.8 100.8-100.8 100.8zM956.8 148.8c0-17.6-14.4-33.6-33.6-33.6h-822.4c-17.6 0-33.6 14.4-33.6 33.6v294.4h888v-294.4zM956.8 507.2h-888v230.4c0 17.6 14.4 33.6 33.6 33.6h822.4c17.6 0 33.6-14.4 33.6-33.6v-230.4z" />
<glyph unicode="&#xe972;" glyph-name="print" d="M849.6 579.2h-56c-19.2 0-33.6-16-33.6-33.6s16-33.6 33.6-33.6h56c19.2 0 33.6 16 33.6 33.6s-14.4 33.6-33.6 33.6zM366.4 64h291.2c19.2 0 33.6 16 33.6 33.6s-16 33.6-33.6 33.6h-291.2c-19.2 0-33.6-16-33.6-33.6s14.4-33.6 33.6-33.6zM862.4 731.2h-20.8v56c0 89.6-72 161.6-161.6 161.6h-336c-89.6 0-161.6-72-161.6-161.6v-56h-20.8c-89.6 0-161.6-72-161.6-161.6v-252.8c0-86.4 68.8-158.4 155.2-161.6h62.4v-139.2c0-35.2 25.6-65.6 59.2-72 1.6 0 4.8 0 6.4 0v0c1.6 0 4.8 0 6.4 0h440c1.6 0 4.8 0 6.4 0v0c3.2 0 4.8 0 6.4 0 33.6 6.4 59.2 36.8 59.2 72v139.2h62.4c88 3.2 155.2 73.6 155.2 161.6v252.8c3.2 88-68.8 161.6-156.8 161.6zM251.2 787.2c0 51.2 41.6 92.8 92.8 92.8h336c51.2 0 92.8-41.6 92.8-92.8v-56h-521.6v56zM736 12.8h-448v289.6h448v-289.6zM955.2 315.2c0-48-36.8-88-86.4-91.2h-62.4v78.4h38.4c19.2 0 33.6 16 33.6 33.6s-16 33.6-33.6 33.6h-664c-19.2 0-33.6-16-33.6-33.6s16-33.6 33.6-33.6h38.4v-78.4h-62.4c-49.6 3.2-86.4 43.2-86.4 91.2v254.4c0 51.2 41.6 92.8 92.8 92.8h699.2c51.2 0 92.8-41.6 92.8-92.8v-254.4zM342.4 193.6c0 0 1.6-1.6 1.6-1.6s0 0 1.6 0c6.4-4.8 12.8-8 22.4-8h291.2c8 0 16 3.2 22.4 8 0 0 0 0 1.6 0 0 0 1.6 1.6 1.6 1.6s1.6 1.6 1.6 1.6c4.8 6.4 8 12.8 8 20.8 0 19.2-16 33.6-33.6 33.6h-294.4c-19.2 0-33.6-16-33.6-33.6 0-8 3.2-14.4 8-20.8 0 0 0 0 1.6-1.6z" />
<glyph unicode="&#xe973;" glyph-name="multi-plan" d="M806.4 171.2h-316.8c-19.2 0-35.2-16-35.2-33.6 0-19.2 16-33.6 35.2-33.6h315.2c19.2 0 35.2 16 35.2 33.6 0 9.6-3.2 17.6-9.6 24s-16 9.6-24 9.6zM940.8 571.2c-11.2 11.2-27.2 19.2-44.8 19.2h-224v208c0 16-6.4 32-17.6 44.8-11.2 11.2-27.2 19.2-44.8 19.2h-67.2l-1.6 1.6c-6.4 11.2-19.2 17.6-32 17.6h-36.8v3.2c-8 43.2-52.8 75.2-104 75.2s-96-32-104-75.2v-3.2h-36.8c-12.8 0-25.6-6.4-32-17.6l-1.6-1.6h-67.2c-33.6-1.6-62.4-30.4-62.4-64v-528c0-35.2 28.8-62.4 62.4-62.4h224v-208c0-35.2 28.8-62.4 62.4-62.4h483.2c35.2 0 62.4 28.8 62.4 62.4v528c1.6 16-4.8 32-17.6 43.2zM252.8 812.8h230.4l11.2-46.4h-252.8l11.2 46.4zM132.8 275.2v516.8h44.8l-11.2-49.6c-3.2-11.2 0-22.4 6.4-30.4s17.6-14.4 28.8-14.4h332.8c11.2 0 20.8 4.8 28.8 14.4 6.4 8 9.6 19.2 6.4 30.4l-11.2 49.6h44.8v-515.2h-470.4zM889.6 4.8h-468.8v201.6h188.8c35.2 0 62.4 28.8 62.4 62.4v38.4h134.4c19.2 0 35.2 16 35.2 33.6 0 9.6-3.2 17.6-9.6 24s-16 9.6-24 9.6h-136v145.6h217.6v-515.2zM526.4 441.6h-315.2c-20.8 0-38.4-17.6-38.4-38.4s17.6-38.4 38.4-38.4h315.2c20.8 0 38.4 17.6 38.4 38.4 0 9.6-3.2 19.2-11.2 27.2s-17.6 11.2-27.2 11.2zM211.2 550.4h315.2c19.2 0 35.2 16 35.2 33.6 0 9.6-3.2 17.6-9.6 24s-16 9.6-24 9.6h-316.8c-19.2 0-35.2-16-35.2-33.6s16-33.6 35.2-33.6z" />
<glyph unicode="&#xe974;" glyph-name="plan-templates" d="M531.2 620.8h-315.2c-19.2 0-35.2-16-35.2-35.2s16-35.2 35.2-35.2h315.2c19.2 0 35.2 16 35.2 35.2 0 9.6-3.2 17.6-9.6 24-8 6.4-16 11.2-25.6 11.2zM857.6 587.2h-180.8v211.2c0 16-6.4 32-17.6 44.8-11.2 11.2-27.2 19.2-44.8 19.2h-67.2l-1.6 1.6c-6.4 11.2-19.2 17.6-32 17.6h-35.2v3.2c-9.6 43.2-52.8 75.2-104 75.2s-96-32-104-75.2v-3.2h-35.2c-12.8 0-25.6-6.4-32-17.6l-1.6-1.6h-68.8c-35.2 0-62.4-28.8-62.4-62.4v-528c0-35.2 28.8-62.4 62.4-62.4h222.4v-182.4c0-48 40-88 88-88h272c3.2 0 6.4 1.6 9.6 1.6 1.6 0 1.6 0 3.2 1.6 4.8 1.6 8 4.8 11.2 8l196.8 193.6c3.2 3.2 4.8 6.4 6.4 11.2 0 1.6 0 1.6 1.6 3.2 1.6 3.2 1.6 6.4 1.6 9.6v332.8c0 46.4-38.4 86.4-88 86.4zM259.2 811.2h230.4l9.6-44.8h-251.2l11.2 44.8zM139.2 276.8v513.6h43.2l-11.2-49.6c-3.2-11.2 0-22.4 6.4-30.4s17.6-14.4 28.8-14.4h332.8c11.2 0 22.4 4.8 28.8 14.4 6.4 8 9.6 19.2 6.4 30.4l-11.2 49.6h44.8v-513.6h-468.8zM750.4 62.4v56c0 8 6.4 14.4 14.4 14.4h56l-70.4-70.4zM872 206.4h-108.8c-48 0-88-40-88-88v-108.8h-230.4c-8 0-14.4 6.4-14.4 14.4v182.4h185.6c35.2 0 62.4 28.8 62.4 62.4v244.8h180.8c8 0 14.4-6.4 14.4-14.4v-292.8zM531.2 438.4h-315.2c-19.2 0-35.2-16-35.2-35.2s16-35.2 35.2-35.2h315.2c19.2 0 35.2 16 35.2 35.2 0 9.6-3.2 17.6-9.6 24-8 8-16 11.2-25.6 11.2z" />
<glyph unicode="&#xe975;" glyph-name="email-templates" d="M1022.4 446.4c0 3.2 0 6.4-1.6 9.6 0 1.6 0 1.6-1.6 3.2-1.6 3.2-3.2 8-6.4 9.6l-206.4 206.4c-3.2 3.2-6.4 4.8-9.6 6.4-1.6 0-1.6 0-3.2 1.6-3.2 1.6-6.4 1.6-9.6 1.6 0 0-1.6 0-1.6 0h-192l-192 192c-3.2 3.2-6.4 4.8-9.6 6.4-1.6 0-1.6 0-3.2 1.6-3.2 1.6-6.4 1.6-9.6 1.6 0 0-1.6 0-1.6 0h-283.2c-49.6 0-88-40-88-88v-499.2c0-49.6 40-88 88-88h318.4v-112c0-49.6 40-88 88-88h435.2c49.6 0 88 40 88 88v345.6c1.6 0 1.6 1.6 1.6 1.6zM816 566.4l86.4-86.4h-68.8c-9.6 0-19.2 8-19.2 19.2v67.2zM408 766.4l86.4-86.4h-68.8c-9.6 0-19.2 8-19.2 19.2v67.2zM72 297.6v499.2c0 11.2 8 19.2 19.2 19.2h248v-116.8c0-49.6 40-88 88-88h116.8v-312c0-9.6-8-19.2-19.2-19.2h-433.6c-11.2-1.6-19.2 8-19.2 17.6zM952 97.6c0-9.6-8-19.2-19.2-19.2h-435.2c-9.6 0-19.2 8-19.2 19.2v112h48c49.6 0 88 40 88 88v318.4h131.2v-116.8c0-49.6 40-88 88-88h116.8v-313.6z" />
<glyph unicode="&#xe976;" glyph-name="copy" d="M932.8 129.6h-84.8v84.8c0 19.2-16 35.2-35.2 35.2s-35.2-16-35.2-35.2v-84.8h-84.8c-19.2 0-35.2-16-35.2-35.2s16-35.2 35.2-35.2h84.8v-84.8c0-19.2 16-35.2 35.2-35.2s35.2 16 35.2 35.2v84.8h84.8c19.2 0 35.2 16 35.2 35.2s-16 35.2-35.2 35.2zM614.4 606.4h172.8v-217.6c0-19.2 16-33.6 35.2-33.6s33.6 14.4 35.2 33.6v251.2c0 1.6 0 1.6 0 3.2 0 3.2 0 6.4-1.6 9.6 0 1.6-1.6 3.2-1.6 3.2-1.6 4.8-4.8 8-6.4 9.6l-281.6 283.2c-3.2 3.2-6.4 4.8-9.6 6.4 0 0-1.6 0-1.6 0-4.8 1.6-8 1.6-11.2 1.6h-390.4c-60.8 0-108.8-49.6-108.8-108.8v-683.2c0-60.8 49.6-108.8 108.8-108.8h395.2c19.2 1.6 33.6 16 33.6 35.2s-14.4 33.6-33.6 35.2h-395.2c-20.8 0-38.4 17.6-38.4 38.4v684.8c0 20.8 17.6 38.4 38.4 38.4h352v-172.8c0-60.8 49.6-108.8 108.8-108.8zM576 838.4l161.6-161.6h-123.2c-20.8 0-38.4 17.6-38.4 38.4v123.2z" />
<glyph unicode="&#xe977;" glyph-name="summary" d="M376 793.6c-24 22.4-51.2 35.2-84.8 35.2h-171.2c-32 0-60.8-11.2-84.8-35.2-22.4-24-35.2-52.8-35.2-84.8v-513.6c0-32 11.2-60.8 35.2-84.8s51.2-35.2 84.8-35.2h582.4c24 0 49.6 6.4 75.2 19.2s46.4 28.8 62.4 46.4l158.4 195.2c16 20.8 24 41.6 24 64 0 12.8-3.2 25.6-8 36.8v1.6c-8 16-19.2 27.2-35.2 36.8-16 8-33.6 12.8-52.8 12.8h-102.4v86.4c0 32-11.2 60.8-35.2 84.8s-51.2 35.2-84.8 35.2h-292.8v17.6c0 28.8-11.2 57.6-35.2 81.6zM926.4 417.6c19.2 0 28.8-6.4 28.8-19.2 0-6.4-3.2-12.8-9.6-20.8l-156.8-195.2c-9.6-11.2-22.4-20.8-38.4-28.8s-32-11.2-46.4-11.2h-584c-19.2 0-28.8 6.4-28.8 19.2 0 6.4 3.2 12.8 9.6 20.8v0l156.8 195.2c9.6 11.2 22.4 20.8 38.4 28.8s32 11.2 46.4 11.2h584zM702.4 622.4c14.4 0 27.2-4.8 36.8-14.4s14.4-22.4 14.4-36.8v-86.4h-411.2c-24 0-49.6-6.4-75.2-19.2s-46.4-28.8-62.4-46.4l-136-168v457.6c0 14.4 4.8 27.2 14.4 36.8s22.4 14.4 36.8 14.4h171.2c14.4 0 27.2-4.8 36.8-14.4s14.4-22.4 14.4-36.8v-33.6c0-14.4 4.8-27.2 14.4-36.8s22.4-14.4 36.8-14.4h308.8z" />
<glyph unicode="&#xe978;" glyph-name="templates" d="M0 96c0-36.8 30.4-67.2 67.2-67.2h888c36.8 0 67.2 30.4 67.2 67.2v604.8c0 56-46.4 102.4-102.4 102.4h-379.2l-1.6 4.8c-16 38.4-52.8 64-94.4 64h-342.4c-56-1.6-102.4-46.4-102.4-104v-672zM547.2 734.4h374.4c19.2 0 33.6-16 33.6-33.6v-62.4l-9.6 1.6c-8 1.6-16 3.2-24 3.2h-374.4v91.2zM102.4 801.6h340.8c19.2 0 33.6-14.4 33.6-33.6v-193.6h443.2c19.2 0 33.6-14.4 33.6-33.6l-3.2-441.6h-880l-1.6 668.8c0 19.2 16 33.6 33.6 33.6z" />
<glyph unicode="&#xe979;" glyph-name="notebook" d="M264-64h588.8c56 0 100.8 44.8 100.8 100.8v822.4c0 56-44.8 100.8-100.8 100.8h-588.8c-56 0-100.8-44.8-100.8-100.8v-131.2h-51.2c-20.8 0-38.4-17.6-38.4-38.4s17.6-38.4 38.4-38.4h51.2v-163.2h-51.2c-20.8 0-38.4-17.6-38.4-38.4s17.6-38.4 38.4-38.4h51.2v-163.2h-51.2c-20.8 0-38.4-17.6-38.4-38.4s17.6-38.4 38.4-38.4h51.2v-134.4c0-54.4 44.8-100.8 100.8-100.8zM486.4 892.8h366.4c17.6 0 33.6-14.4 33.6-33.6v-822.4c0-17.6-14.4-33.6-33.6-33.6h-366.4v889.6zM230.4 171.2h52.8c20.8 0 38.4 17.6 38.4 38.4s-17.6 38.4-38.4 38.4h-52.8v163.2h52.8c20.8 0 38.4 17.6 38.4 38.4s-17.6 38.4-38.4 38.4h-52.8v163.2h52.8c20.8 0 38.4 17.6 38.4 38.4s-17.6 38.4-38.4 38.4h-52.8v131.2c0 17.6 14.4 33.6 33.6 33.6h155.2v-888h-155.2c-17.6 0-33.6 14.4-33.6 33.6v132.8z" />
</font>
</defs>
</svg>
